<svg width="108" height="105" viewBox="0 0 108 105" fill="none" xmlns="http://www.w3.org/2000/svg">
<path d="M23.7669 80.9793C21.1431 74.1833 13.5068 70.8013 6.71097 73.4251C-0.0850464 76.0489 -3.46712 83.685 -0.843244 90.481C1.78063 97.277 9.41672 100.659 16.2127 98.0352C23.0085 95.4114 26.3908 87.7753 23.7669 80.9793Z" fill="#201F22"/>
<path d="M20.0453 82.4161C18.2151 77.6756 12.8883 75.3163 8.14772 77.1466C3.40717 78.9769 1.0479 84.3036 2.87819 89.0442C4.70847 93.7848 10.0352 96.144 14.7758 94.3137C19.5164 92.4834 21.8756 87.1567 20.0453 82.4161Z" fill="#838584"/>
<path d="M18.1586 83.1447C16.7306 79.4461 12.5747 77.6054 8.87613 79.0334C5.17773 80.4613 3.33728 84.6171 4.76528 88.3157C6.19327 92.0143 10.3489 93.855 14.0473 92.4271C17.7459 90.9991 19.5866 86.8433 18.1586 83.1447Z" fill="#B0AEB1"/>
<path d="M15.1899 84.2908C14.395 82.232 12.0816 81.2073 10.0227 82.0022C7.96373 82.7972 6.9389 85.1107 7.73379 87.1695C8.52868 89.2283 10.8423 90.2529 12.9013 89.4579C14.9601 88.663 15.9848 86.3496 15.1899 84.2908Z" fill="#CCCCCC"/>
<path d="M14.2373 90.4961C14.0499 90.0107 13.5044 89.769 13.019 89.9565C12.5336 90.1439 12.292 90.6894 12.4794 91.1748C12.6668 91.6602 13.2123 91.9018 13.6977 91.7144C14.1831 91.527 14.4247 90.9815 14.2373 90.4961Z" fill="#838584"/>
<path d="M10.3144 80.3357C10.127 79.8503 9.58154 79.6087 9.09613 79.7961C8.61071 79.9835 8.36911 80.529 8.55652 81.0144C8.74394 81.4999 9.28943 81.7415 9.77485 81.5541C10.2603 81.3666 10.5019 80.8211 10.3144 80.3357Z" fill="#838584"/>
<path d="M16.2026 82.8898C15.7172 83.0772 15.4756 83.6227 15.663 84.1081C15.8504 84.5935 16.3959 84.8351 16.8813 84.6477C17.3667 84.4603 17.6083 83.9148 17.4209 83.4294C17.2335 82.944 16.688 82.7024 16.2026 82.8898Z" fill="#838584"/>
<path d="M6.04242 86.8126C5.557 87 5.3154 87.5455 5.50281 88.0309C5.69023 88.5163 6.23572 88.7579 6.72113 88.5705C7.20655 88.3831 7.44815 87.8376 7.26074 87.3522C7.07332 86.8668 6.52783 86.6252 6.04242 86.8126Z" fill="#838584"/>
<path d="M12.7296 80.3831C12.5189 80.8587 12.7338 81.4153 13.2095 81.6261C13.6852 81.8368 14.2417 81.6219 14.4526 81.1462C14.6632 80.6703 14.4483 80.1138 13.9726 79.9031C13.4968 79.6925 12.9402 79.9074 12.7296 80.3831Z" fill="#838584"/>
<path d="M8.31892 90.3415C8.10825 90.8172 8.32312 91.3737 8.79886 91.5846C9.27452 91.7953 9.83106 91.5804 10.0419 91.1047C10.2525 90.6288 10.0377 90.0723 9.56199 89.8616C9.08613 89.651 8.52959 89.8659 8.31892 90.3415Z" fill="#838584"/>
<path d="M16.7578 87.0991C16.2821 86.8884 15.7256 87.1033 15.5147 87.579C15.304 88.0547 15.5189 88.6112 15.9947 88.8221C16.4705 89.0327 17.0271 88.8178 17.2377 88.3422C17.4483 87.8663 17.2335 87.3098 16.7578 87.0991Z" fill="#838584"/>
<path d="M6.79906 82.6884C6.32339 82.4777 5.76685 82.6926 5.55598 83.1683C5.34531 83.644 5.56018 84.2005 6.03592 84.4114C6.51178 84.622 7.06832 84.4071 7.27899 83.9315C7.48959 83.4556 7.27472 82.8991 6.79906 82.6884Z" fill="#838584"/>
<path d="M78.236 78.2696C74.1155 84.2773 75.6456 92.4876 81.6532 96.6079C87.6609 100.728 95.8711 99.1984 99.9915 93.1907C104.112 87.183 102.582 78.9728 96.5743 74.8524C90.5668 70.7321 82.3564 72.2618 78.236 78.2696Z" fill="#201F22"/>
<path d="M81.5258 80.5259C78.6516 84.7166 79.7188 90.4439 83.9095 93.3181C88.1002 96.1923 93.8274 95.125 96.7016 90.9344C99.5758 86.7437 98.5086 81.0164 94.3179 78.1422C90.1272 75.268 84.4 76.3352 81.5258 80.5259Z" fill="#838584"/>
<path d="M83.1939 81.67C80.9514 84.9395 81.784 89.4078 85.0536 91.6503C88.323 93.8926 92.7911 93.0599 95.0336 89.7903C97.2761 86.5207 96.4436 82.0525 93.1742 79.8102C89.9046 77.5677 85.4363 78.4004 83.1939 81.67Z" fill="#B0AEB1"/>
<path d="M85.8182 83.4698C84.5699 85.2898 85.0334 87.7772 86.8534 89.0255C88.6736 90.2738 91.1611 89.8105 92.4094 87.9905C93.6577 86.1704 93.194 83.683 91.3738 82.4346C89.5538 81.1863 87.0664 81.6498 85.8182 83.4698Z" fill="#CCCCCC"/>
<path d="M91.4744 80.7457C91.1801 81.1748 91.2894 81.7613 91.7185 82.0557C92.1476 82.35 92.7341 82.2407 93.0284 81.8116C93.3227 81.3824 93.2134 80.7959 92.7843 80.5016C92.3552 80.2073 91.7687 80.3166 91.4744 80.7457Z" fill="#838584"/>
<path d="M85.314 89.7275C85.0197 90.1567 85.129 90.7432 85.5581 91.0375C85.9872 91.3318 86.5737 91.2225 86.868 90.7934C87.1623 90.3643 87.053 89.7778 86.6239 89.4834C86.1948 89.1891 85.6083 89.2984 85.314 89.7275Z" fill="#838584"/>
<path d="M84.0898 83.4271C84.519 83.7214 85.1055 83.6121 85.3998 83.183C85.6941 82.7538 85.5848 82.1673 85.1557 81.873C84.7266 81.5787 84.1401 81.688 83.8457 82.1171C83.5514 82.5462 83.6607 83.1327 84.0898 83.4271Z" fill="#838584"/>
<path d="M93.0718 89.5872C93.5009 89.8815 94.0874 89.7723 94.3817 89.3431C94.676 88.914 94.5667 88.3275 94.1376 88.0332C93.7085 87.7389 93.122 87.8482 92.8277 88.2773C92.5334 88.7064 92.6427 89.2929 93.0718 89.5872Z" fill="#838584"/>
<path d="M83.9872 87.7091C84.4987 87.6138 84.8361 87.1218 84.7409 86.6102C84.6456 86.0987 84.1536 85.7613 83.642 85.8565C83.1305 85.952 82.7931 86.444 82.8884 86.9554C82.9838 87.4669 83.4758 87.8044 83.9872 87.7091Z" fill="#838584"/>
<path d="M94.6943 85.7137C95.2057 85.6184 95.5431 85.1264 95.4479 84.6148C95.3526 84.1034 94.8607 83.766 94.3491 83.8612C93.8375 83.9566 93.5001 84.4486 93.5954 84.9601C93.6909 85.4716 94.1828 85.809 94.6943 85.7137Z" fill="#838584"/>
<path d="M87.2472 80.5885C87.3425 81.0999 87.8345 81.4374 88.3461 81.3422C88.8576 81.2469 89.195 80.7549 89.0998 80.2433C89.0043 79.7317 88.5123 79.3943 88.0009 79.4896C87.4894 79.5851 87.1519 80.0771 87.2472 80.5885Z" fill="#838584"/>
<path d="M89.2426 91.2958C89.3379 91.8072 89.8299 92.1446 90.3415 92.0495C90.8529 91.9542 91.1903 91.4622 91.0952 90.9506C90.9997 90.439 90.5077 90.1016 89.9963 90.1969C89.4847 90.2924 89.1473 90.7844 89.2426 91.2958Z" fill="#838584"/>
<path d="M59.1269 34.6742C59.0938 34.0041 59.6101 33.434 60.2802 33.4009C60.9503 33.3677 61.5204 33.884 61.5536 34.5542C61.5867 35.2243 61.0704 35.7944 60.4003 35.8275C59.7301 35.8607 59.1601 35.3443 59.1269 34.6742Z" fill="#B96A42"/>
<path d="M60.4994 33.4097C60.4994 33.4097 65.489 33.9941 65.8925 34.0805C66.2959 34.1668 67.8989 34.8327 68.0022 35.3067C68.1056 35.7807 68.0954 37.1914 68.0954 37.1914C68.0954 37.1914 67.8242 37.4362 67.6243 36.9845C67.4243 36.5328 67.4056 35.6208 67.4056 35.6208L66.5128 35.3269L67.0327 36.153L67.2109 38.1398C67.2109 38.1398 66.596 38.1143 66.4538 37.6438C66.3116 37.1733 66.2872 36.6423 66.2872 36.6423L65.6212 36.1325L66.1312 36.7563L66.3633 38.1817C66.3633 38.1817 65.9045 38.3556 65.7422 38.0447C65.58 37.7337 65.5208 36.7865 65.5208 36.7865L63.6875 36.246L62.5264 36.97L60.1466 35.8136L60.4994 33.4097Z" fill="#B96A42"/>
<path d="M82.9588 67.475C82.9588 67.475 95.8079 63.5887 101.122 77.5482L74.2341 85.876L82.9588 67.475Z" fill="url(#paint0_linear_5_704)"/>
<path d="M29.3327 80.8382C29.263 80.8738 22.7283 79.8278 22.7283 79.8278C22.0122 80.7608 20.922 81.332 19.7474 81.3882C16.9253 81.5235 14.1645 81.6478 11.7748 81.7546C9.54527 81.8544 7.8179 83.7398 7.91213 85.9696V85.973C8.00113 88.0807 9.6929 89.7675 11.8009 89.8504L25.6984 90.3976C27.9835 90.4876 31.0214 89.0984 32.4483 87.3112L29.3327 80.8382Z" fill="#27282A"/>
<path d="M25.6392 90.5296C25.6018 90.4983 26.3001 90.0542 26.8955 88.9342C27.1923 88.3814 27.4369 87.6599 27.5109 86.8333C27.587 86.0101 27.4673 85.0783 27.064 84.2128C26.645 83.354 25.9959 82.6748 25.3081 82.2159C24.619 81.7531 23.9042 81.4894 23.2879 81.3725C22.0427 81.1307 21.2585 81.3934 21.2576 81.3446C21.2564 81.3391 21.3036 81.3252 21.3948 81.3035C21.4866 81.286 21.6201 81.2415 21.7981 81.2252C22.151 81.1702 22.6759 81.1537 23.3088 81.2614C23.941 81.3667 24.6777 81.6251 25.39 82.0935C26.1009 82.5579 26.7746 83.2549 27.2082 84.144C27.6263 85.0403 27.7438 86.0025 27.6576 86.8468C27.5735 87.6952 27.3108 88.4302 26.9949 88.9879C26.6803 89.5478 26.3369 89.9452 26.0723 90.1849C25.9477 90.3129 25.8289 90.3887 25.7577 90.4492C25.6831 90.5063 25.6426 90.5339 25.6392 90.5296Z" fill="#263238"/>
<path d="M-4.80988 75.2847C-4.80988 75.2847 -5.40777 63.0546 6.08626 60.5062V58.9382H46.3514V62.6771C46.3514 62.6771 40.4416 69.7935 42.3712 75.7033C44.3011 81.6135 44.9039 82.2163 44.9039 82.2163H67.8202C67.8202 82.2163 70.5945 78.7188 70.7151 73.5324C70.8357 68.346 68.6805 59.4774 67.0719 53.8085C65.6094 48.654 64.6843 44.3442 64.6843 44.3442L71.5591 42.0524C71.5591 42.0524 84.2802 58.6856 84.7999 59.6208C85.3195 60.556 87.0861 62.7385 86.6706 67.5192C86.255 72.2998 74.823 87.0568 71.8093 88.7194C68.7956 90.3823 66.0937 90.4863 63.3915 90.9019C61.046 91.2629 43.6974 91.0241 39.1595 90.9547C37.5835 90.9308 36.0268 90.5281 34.6791 89.7107C33.3221 88.8879 32.3013 87.5264 31.1752 85.2901L28.7849 80.6135L-4.80988 75.2847Z" fill="url(#paint1_linear_5_704)"/>
<path d="M-1.7283 74.4336L-6.80054 82.3774C-7.44999 83.3942 -6.39908 84.6741 -5.29201 84.1944C-4.7552 83.9617 -4.17726 83.598 -3.59103 83.0403C-1.27129 80.8336 2.86298 75.0207 2.86298 75.0207L-1.7283 74.4336Z" fill="#27282A"/>
<path d="M34.6391 75.8641C34.6367 75.8632 34.6465 75.8239 34.6686 75.7484C34.6938 75.6659 34.7278 75.5554 34.7708 75.4148C34.8574 75.1211 34.9611 74.6803 35.0363 74.1042C35.1655 72.9609 35.1066 71.2142 34.2515 69.3104C33.8347 68.3611 33.2175 67.3909 32.3832 66.5008C31.545 65.6172 30.5095 64.8001 29.3011 64.1494C28.0967 63.4942 26.7368 62.9798 25.2792 62.6526C23.8213 62.3254 22.2713 62.1778 20.6857 62.1778C19.0983 62.1775 17.5505 62.3186 16.0659 62.5166C14.5807 62.7167 13.155 62.9629 11.8132 63.2692C9.12756 63.8729 6.79064 64.7664 4.98316 65.7964C3.16924 66.8197 1.88353 67.936 1.08031 68.7745C0.675166 69.1925 0.385122 69.54 0.190839 69.7772C0.0990684 69.892 0.0269409 69.9822 -0.0270774 70.0498C-0.0771067 70.1108 -0.103809 70.1409 -0.105957 70.1394C-0.105957 70.1394 0.236571 69.5869 1.03519 68.7315C1.82767 67.8761 3.11 66.7402 4.9273 65.6982C6.73816 64.6494 9.08521 63.7394 11.78 63.1255C13.1265 62.8143 14.5561 62.5642 16.045 62.3613C17.5342 62.1606 19.0888 62.0179 20.6857 62.0182C22.2811 62.0182 23.8428 62.1679 25.3139 62.5C26.7843 62.8321 28.1566 63.3545 29.372 64.0202C30.5911 64.6813 31.6359 65.5119 32.4799 66.4103C33.3203 67.3154 33.9403 68.3018 34.3549 69.2646C35.2063 71.1958 35.2475 72.9622 35.098 74.1119C35.0127 74.6914 34.8982 75.1324 34.8015 75.4243C34.7521 75.5634 34.7131 75.6723 34.684 75.754C34.6566 75.8279 34.6416 75.8651 34.6391 75.8641Z" fill="#263238"/>
<path d="M32.3192 73.1184C32.3021 73.1116 32.3865 72.9253 32.4712 72.5739C32.5657 72.2246 32.6059 71.6927 32.5169 71.0534C32.4291 70.4132 32.1827 69.671 31.7689 68.9215C31.566 68.5449 31.3165 68.1689 31.0268 67.8049C30.7413 67.4375 30.4053 67.0879 30.029 66.7715C29.2721 66.1362 28.429 65.6887 27.6343 65.3707C26.8339 65.0613 26.0785 64.8762 25.4371 64.7707C24.7953 64.6635 24.2689 64.6184 23.9049 64.5963C23.5409 64.5739 23.3386 64.5653 23.3386 64.5527C23.3386 64.5472 23.3893 64.5426 23.4856 64.5389C23.582 64.5368 23.7244 64.5288 23.9074 64.534C24.2735 64.5371 24.8045 64.5653 25.4546 64.6589C26.1043 64.7513 26.8719 64.9272 27.6877 65.2335C28.4977 65.549 29.3577 65.9996 30.1318 66.649C30.5179 66.9738 30.8598 67.3316 31.1495 67.7079C31.4436 68.0805 31.6953 68.4651 31.8984 68.8512C32.3131 69.6188 32.5534 70.3812 32.6289 71.0384C32.7057 71.6946 32.6461 72.2384 32.5313 72.5896C32.4951 72.771 32.4168 72.8962 32.3855 72.987C32.3469 73.0757 32.3242 73.1209 32.3192 73.1184Z" fill="#F5F5F5"/>
<path d="M24.4341 62.4034C26.6845 62.8327 28.6515 63.6396 30.4974 64.8716C32.3432 66.1036 33.7554 67.8479 34.5589 69.9166C35.3624 71.9852 35.2421 74.7251 34.3966 76.4387L37.2414 76.6741C38.1997 73.4803 37.1564 69.5599 34.8548 67.0591C32.1545 64.1252 28.4401 62.4034 24.4341 62.4034Z" fill="url(#paint2_linear_5_704)"/>
<path d="M46.3515 58.9382C46.3515 58.9382 47.0157 58.1457 47.0792 57.1344C47.1427 56.1231 46.6814 54.8585 45.5934 54.8585H31.6897C29.4369 54.8585 27.6104 56.6853 27.6104 58.9382H46.3515Z" fill="#27282A"/>
<path d="M64.6842 44.3439L62.2666 39.3011C61.6055 37.8675 62.1325 36.1659 63.4885 35.3571L70.7187 31.0442C71.0968 30.8186 71.529 30.6999 71.9691 30.6999H73.5317L74.1575 40.8922L71.7469 41.8142L73.2723 44.2954L64.6842 44.3439Z" fill="url(#paint3_linear_5_704)"/>
<path d="M73.5544 31.0697C73.5544 31.0697 76.0283 31.6366 76.3395 35.4504C76.6507 39.2643 74.1576 40.4512 74.1576 40.4512L73.5544 31.0697Z" fill="#EBEBEB"/>
<path d="M65.5272 37.3258C65.5272 37.3258 60.5262 39.6958 59.916 40.0847C59.4928 40.3545 59.1291 40.8272 59.4611 41.658C60.0274 43.0748 62.3659 41.7421 62.3659 41.7421L67.0201 39.415C67.0201 39.415 68.8098 38.5703 68.1493 37.5136C67.4096 36.3304 65.5272 37.3258 65.5272 37.3258Z" fill="#263238"/>
<path d="M65.7664 29.919C65.7664 31.8204 64.8923 33.3621 63.8137 33.3621C62.7352 33.3621 61.8611 31.8204 61.8611 29.919C61.8611 28.0177 62.7352 26.476 63.8137 26.476C64.8923 26.476 65.7664 28.0177 65.7664 29.919Z" fill="#263238"/>
<path d="M64.1343 32.2864L65.207 36.0038C65.6861 35.7607 65.7858 35.2832 65.706 34.9063C65.4369 33.6328 65.2852 32.7259 64.9894 31.6111C64.9535 31.4982 64.1343 32.2864 64.1343 32.2864Z" fill="#263238"/>
<path d="M42.9006 77.2917C42.7945 76.9853 42.6864 76.6717 42.5839 76.35C42.4884 76.0501 42.3758 75.7389 42.2939 75.4406C42.1468 74.9072 42.0618 74.3575 42.0256 74.0398C40.2154 81.4115 42.9792 86.6022 47.7261 86.9672C54.6608 87.5003 63.1156 87.8882 66.536 86.9905C72.7696 85.3543 75.0571 80.1571 75.6026 79.2999C76.148 78.4426 81.1072 69.3804 78.0684 60.6533C75.0295 51.9262 69.7332 42.6613 69.7332 42.661L64.6843 44.3439C64.6843 44.3439 65.6094 48.6541 67.0719 53.8085C68.6805 59.4774 70.8354 68.3457 70.7148 73.5321C70.5942 78.7186 67.8202 82.2163 67.8202 82.2163H44.9039C44.9039 82.2163 44.4129 81.724 42.9006 77.2917Z" fill="url(#paint4_linear_5_704)"/>
<path d="M-5.72627 73.3661L-5.56483 71.6175L36.2635 76.4365C38.624 76.7134 40.2649 78.9199 39.8505 81.2602L39.663 82.3206L-3.62813 76.0299C-4.92458 75.8414 -5.84658 74.6708 -5.72627 73.3661Z" fill="url(#paint5_linear_5_704)"/>
<path d="M-5.72627 73.3661L-5.56483 71.6175L36.2635 76.4365C38.624 76.7134 40.2649 78.9199 39.8505 81.2602L39.663 82.3206L-3.62813 76.0299C-4.92458 75.8414 -5.84658 74.6708 -5.72627 73.3661Z" fill="url(#paint6_linear_5_704)"/>
<path d="M75.6025 85.0682C75.6025 85.0682 84.8106 74.9406 86.7089 66.9781C87.3467 66.9716 88.8334 67.0361 89.5609 67.1892C89.5609 67.1892 84.1157 81.9907 75.6025 85.0682Z" fill="url(#paint7_linear_5_704)"/>
<path d="M86.5754 63.4088C86.5809 63.4079 86.5978 63.496 86.6254 63.6648C86.6494 63.8339 86.6994 64.0819 86.7304 64.4054C86.7903 65.0515 86.8295 66.0005 86.6589 67.1545C86.4932 68.3076 86.0985 69.6532 85.4441 71.0463C84.8042 72.4474 83.9236 73.8931 83.0065 75.4044C81.1619 78.4386 79.1089 80.9204 77.6166 82.6926C76.8662 83.5775 76.248 84.284 75.8183 84.7696C75.6096 85.0028 75.4436 85.1882 75.3202 85.326C75.2048 85.4518 75.1425 85.5163 75.1382 85.5126C75.1339 85.5089 75.1882 85.4377 75.2956 85.3048C75.4135 85.1621 75.5722 84.9703 75.7714 84.729C76.1968 84.2189 76.795 83.5016 77.53 82.6202C78.9993 80.8308 81.033 78.3432 82.8696 75.3215C83.787 73.8093 84.6682 72.3716 85.3106 70.9843C85.9677 69.6044 86.3689 68.2773 86.5472 67.1373C86.7304 65.9965 86.7089 65.0555 86.6684 64.4109C86.6469 64.0884 86.607 63.8394 86.5935 63.6694C86.5763 63.4997 86.5699 63.4097 86.5754 63.4088Z" fill="#263238"/>
<path d="M70.658 84.9945C70.627 85.0262 69.9669 84.4295 69.1833 83.6625C68.3994 82.8952 67.7892 82.2479 67.8202 82.2163C67.8509 82.1846 68.5111 82.781 69.295 83.5483C70.0786 84.3153 70.689 84.9629 70.658 84.9945Z" fill="#263238"/>
<path d="M43.3309 84.6824C43.2928 84.6652 43.5458 84.0483 44.0064 83.3718C44.465 82.6932 44.9447 82.2307 44.9745 82.2598C45.0092 82.2912 44.5893 82.7942 44.1387 83.4615C43.6854 84.1266 43.3726 84.703 43.3309 84.6824Z" fill="#263238"/>
<path d="M10.3652 87.3235C10.321 87.3256 10.2541 86.6651 10.2151 85.8484C10.1761 85.0314 10.1804 84.3675 10.2246 84.3653C10.2688 84.3632 10.3357 85.0237 10.3747 85.8407C10.4137 86.6574 10.4094 87.3213 10.3652 87.3235Z" fill="#263238"/>
<path d="M11.4746 87.3256C11.4307 87.3312 11.3104 86.6722 11.206 85.8539C11.1014 85.0354 11.052 84.3675 11.0959 84.362C11.1397 84.3564 11.2598 85.0151 11.3644 85.8337C11.4691 86.6519 11.5185 87.3201 11.4746 87.3256Z" fill="#263238"/>
<path d="M28.7248 58.9382C28.7248 58.9824 23.639 59.018 17.367 59.018C11.0929 59.018 6.00806 58.9824 6.00806 58.9382C6.00806 58.894 11.0929 58.8584 17.367 58.8584C23.639 58.8584 28.7248 58.894 28.7248 58.9382Z" fill="#263238"/>
<path d="M46.8542 71.5513L46.7666 71.7359L45.0775 75.2934L42.6016 77.9015L48.0825 84.5542L52.3599 83.6459C52.3599 83.6459 51.8316 82.684 49.6605 82.5911L48.6487 78.5128L51.4763 73.6667" fill="#27282A"/>
<path d="M42.6017 77.9015L48.0827 84.5542L52.36 83.6459L51.7416 83.1053L48.2225 83.653L43.1283 77.3466L42.6017 77.9015Z" fill="#E0E0E0"/>
<path d="M49.2327 80.7147C49.2104 80.7651 48.9342 80.6774 48.6054 80.7573C48.2743 80.8275 48.0632 81.0262 48.0211 80.9903C47.9739 80.9666 48.1604 80.659 48.5626 80.5696C48.9636 80.4764 49.2649 80.673 49.2327 80.7147Z" fill="#263238"/>
<path d="M48.9469 79.7106C48.9106 79.75 48.6663 79.5379 48.3112 79.544C47.9558 79.5465 47.717 79.7643 47.6797 79.7257C47.6611 79.7096 47.6949 79.6273 47.8011 79.5362C47.9049 79.4458 48.0891 79.3546 48.309 79.3518C48.5285 79.3493 48.7152 79.4362 48.8212 79.5242C48.9296 79.6127 48.9652 79.6941 48.9469 79.7106Z" fill="#263238"/>
<path d="M48.6964 78.3964C48.6545 78.4299 48.4562 78.2139 48.1361 78.1742C47.8165 78.1305 47.5695 78.2885 47.5378 78.2454C47.5219 78.2264 47.5632 78.1551 47.6722 78.0857C47.7791 78.0164 47.9596 77.9573 48.161 77.9836C48.3625 78.0098 48.5217 78.1133 48.6074 78.2075C48.6949 78.3028 48.7166 78.382 48.6964 78.3964Z" fill="#263238"/>
<path d="M49.6253 77.1383C49.5784 77.1672 49.4064 76.9494 49.1041 76.8339C48.8054 76.7097 48.5307 76.7497 48.5163 76.6966C48.4912 76.6501 48.8073 76.5065 49.1753 76.6553C49.5447 76.8003 49.6753 77.1217 49.6253 77.1383Z" fill="#263238"/>
<path d="M49.9964 76.1413C49.9776 76.1603 49.8 76.018 49.5279 75.7731C49.373 75.6295 49.2169 75.4844 49.0569 75.3358C48.9737 75.2486 48.869 75.1799 48.7849 75.0325C48.7456 74.9575 48.7272 74.8628 48.7558 74.7672C48.7802 74.6671 48.8883 74.5839 48.985 74.5771C49.1774 74.5645 49.3021 74.6385 49.4287 74.6994C49.5524 74.7673 49.6601 74.8513 49.7517 74.9412C49.9343 75.1228 50.0459 75.3298 50.1072 75.5108C50.2295 75.8801 50.1516 76.122 50.1347 76.1154C50.1 76.1154 50.1239 75.8815 49.9807 75.5598C49.9094 75.4011 49.7969 75.223 49.629 75.069C49.5451 74.9928 49.4485 74.9225 49.3403 74.8659C49.2349 74.8123 49.1007 74.7572 49.0111 74.7677C48.9684 74.7751 48.9504 74.7904 48.9384 74.8238C48.927 74.859 48.9316 74.9064 48.9528 74.9473C48.9954 75.0335 49.1005 75.1222 49.1815 75.2101C49.3315 75.3687 49.4783 75.5234 49.6237 75.6766C49.8715 75.9463 50.0152 76.1223 49.9964 76.1413Z" fill="#263238"/>
<path d="M50.1767 76.2358C50.1563 76.2389 50.1245 76.0105 50.3015 75.7039C50.4749 75.4129 50.9138 75.0475 51.5206 75.2052C51.5669 75.2305 51.6109 75.2847 51.6197 75.3439C51.63 75.4037 51.6141 75.4529 51.5971 75.4906C51.5606 75.5678 51.5116 75.6127 51.4722 75.6578C51.3877 75.7485 51.2976 75.8275 51.2066 75.8949C51.0247 76.0303 50.8388 76.1185 50.6777 76.1718C50.3528 76.2783 50.1386 76.2566 50.1383 76.2348C50.1344 76.2042 50.3378 76.1764 50.6281 76.045C50.7723 75.9796 50.9374 75.8861 51.0983 75.7548C51.1786 75.6894 51.2582 75.6149 51.3328 75.531C51.3705 75.4872 51.4089 75.4462 51.423 75.4111C51.4358 75.3691 51.4327 75.3809 51.4233 75.3712C51.4062 75.3581 51.3451 75.3529 51.2897 75.3517C51.2344 75.3502 51.1792 75.3533 51.1258 75.3609C51.0186 75.3752 50.9174 75.4062 50.8264 75.4475C50.6433 75.5294 50.5074 75.6566 50.4146 75.7796C50.2296 76.031 50.2077 76.2418 50.1767 76.2358Z" fill="#263238"/>
<path d="M61.783 74.3274L63.1672 83.3154L74.3583 81.6506C74.1336 80.5914 68.0249 79.306 68.0249 79.306L67.3742 73.511L61.783 74.3274Z" fill="#27282A"/>
<path d="M63.1668 83.3154L63.0627 82.4041L73.8318 81.1485C73.8318 81.1485 74.3622 81.2909 74.3582 81.6503L63.1668 83.3154Z" fill="#E0E0E0"/>
<path d="M68.1976 79.2219C68.204 79.2768 67.9345 79.3422 67.6918 79.558C67.4435 79.7673 67.3397 80.0245 67.2863 80.0104C67.2345 80.0073 67.2673 79.6685 67.5659 79.4125C67.8621 79.1541 68.2019 79.17 68.1976 79.2219Z" fill="#263238"/>
<path d="M69.4438 79.5331C69.4641 79.5844 69.2409 79.7124 69.0899 79.9711C68.9309 80.2252 68.9214 80.4821 68.8668 80.4879C68.8167 80.5042 68.7311 80.1896 68.9254 79.8716C69.1166 79.5518 69.4349 79.4812 69.4438 79.5331Z" fill="#263238"/>
<path d="M70.3195 80.8385C70.2717 80.8575 70.1547 80.5957 70.2505 80.2756C70.3441 79.9545 70.5844 79.7986 70.6142 79.8407C70.6516 79.8809 70.5095 80.0663 70.4349 80.3302C70.3542 80.5923 70.3729 80.825 70.3195 80.8385Z" fill="#263238"/>
<path d="M67.9026 77.9178C67.887 77.9709 67.6251 77.9328 67.3195 77.9997C67.0122 78.0605 66.7872 78.2001 66.7519 78.1575C66.7145 78.1228 66.9189 77.8852 67.2802 77.8116C67.6408 77.7351 67.9232 77.8708 67.9026 77.9178Z" fill="#263238"/>
<path d="M67.4387 76.6296C67.4427 76.652 67.2318 76.718 66.8779 76.71C66.7018 76.7057 66.4909 76.6796 66.2647 76.617C66.1518 76.5857 66.0348 76.5452 65.9173 76.4943C65.8608 76.4688 65.7948 76.4442 65.7285 76.3874C65.6594 76.3396 65.6036 76.1999 65.6604 76.1008C65.7049 76.0062 65.8006 75.9538 65.881 75.94C65.963 75.9249 66.0324 75.9317 66.0956 75.9378C66.2248 75.9495 66.3476 75.9734 66.4617 76.0056C66.6901 76.071 66.8822 76.168 67.0293 76.2677C67.3248 76.4697 67.4436 76.6606 67.4264 76.6741C67.4043 76.6959 67.2527 76.5437 66.959 76.3844C66.8126 76.3052 66.6287 76.2278 66.4169 76.1769C66.311 76.152 66.1981 76.1339 66.0805 76.1256C65.9575 76.1121 65.8562 76.1263 65.8338 76.1837C65.8258 76.2054 65.8255 76.2134 65.8556 76.2444C65.886 76.2727 65.9387 76.2966 65.9943 76.3221C66.103 76.3718 66.2107 76.4132 66.3153 76.4473C66.525 76.5151 66.7214 76.5535 66.8881 76.5744C67.222 76.6161 67.4353 76.5998 67.4387 76.6296Z" fill="#263238"/>
<path d="M67.3794 76.7186C67.3613 76.73 67.2238 76.5501 67.1511 76.1993C67.1158 76.0253 67.102 75.8095 67.136 75.5741C67.1538 75.4566 67.1836 75.3347 67.2284 75.2125C67.2775 75.0922 67.3352 74.9323 67.5436 74.8765C67.6538 74.8559 67.7588 74.9286 67.8012 74.998C67.8493 75.0683 67.8665 75.1321 67.8892 75.1951C67.9294 75.3227 67.9457 75.451 67.9457 75.5723C67.946 75.8157 67.8779 76.0287 67.7926 76.187C67.617 76.5096 67.3988 76.6087 67.3914 76.5909C67.369 76.5661 67.5436 76.4323 67.6695 76.1287C67.7315 75.9789 67.7781 75.7868 67.7686 75.5756C67.7643 75.4704 67.7459 75.3608 67.71 75.2534C67.6747 75.137 67.6161 75.0477 67.5734 75.0665C67.5176 75.0738 67.4362 75.1776 67.4046 75.2792C67.3622 75.3881 67.3319 75.4974 67.311 75.6036C67.2711 75.8163 67.2689 76.0145 67.2855 76.1791C67.319 76.5099 67.408 76.7057 67.3794 76.7186Z" fill="#263238"/>
<path d="M53.9871 53.7383L44.3887 74.6518L50.7273 78.457L63.9987 53.2929" fill="#010101"/>
<path d="M51.6227 32.2119C51.107 30.5812 49.3672 29.677 47.7365 30.1927C46.1057 30.7085 45.2016 32.4483 45.7173 34.079C46.2331 35.7097 47.9728 36.6139 49.6036 36.0982C51.2343 35.5824 52.1385 33.8426 51.6227 32.2119Z" fill="url(#paint8_linear_5_704)"/>
<path d="M47.7984 36.1358L61.3363 37.662L61.6664 33.1567L50.5698 30.7001L47.7984 36.1358Z" fill="url(#paint9_linear_5_704)"/>
<path d="M50.7509 30.8524C50.7509 30.8524 44.0963 21.7417 44.0767 21.6431L41.3943 29.1398L46.503 35.3577L50.7509 30.8524Z" fill="url(#paint10_linear_5_704)"/>
<path d="M38.9516 38.5636C43.3632 38.5636 46.9451 42.1455 46.9451 46.5571C46.9451 50.9688 43.3632 54.5507 38.9516 54.5507C34.5399 54.5507 30.958 50.9688 30.958 46.5571C30.958 42.1455 34.5399 38.5636 38.9516 38.5636Z" fill="url(#paint11_linear_5_704)"/>
<path d="M31.153 47.3717L31.2549 36.9722C31.2549 36.9722 30.3658 28.5864 30.2102 25.9039C30.0991 23.9899 33.5078 17.4815 34.9288 17.1114C36.3499 16.7412 39.5542 18.3194 39.5542 18.3194C41.9166 19.8995 44.0869 20.9845 44.5261 23.1885L46.8753 45.7312L31.153 47.3717Z" fill="url(#paint12_linear_5_704)"/>
<path d="M44.6762 41.9628C44.6839 41.9662 44.6333 42.1033 44.5086 42.3366C44.3856 42.5705 44.1729 42.8924 43.8564 43.2457C43.2315 43.9578 42.1183 44.7294 40.7335 45.1563C39.3486 45.582 38.0344 45.6612 37.0989 45.7011C36.629 45.7186 36.2493 45.7223 35.9866 45.7211C35.7239 45.7198 35.5787 45.7137 35.5784 45.7027C35.5781 45.6916 35.7226 45.6766 35.9844 45.6588C36.2779 45.64 36.6495 45.6164 37.093 45.5882C38.0246 45.5197 39.325 45.4224 40.6859 45.0038C42.045 44.5842 43.1407 43.8464 43.7739 43.1687C44.4187 42.4941 44.6452 41.9437 44.6762 41.9628Z" fill="#263238"/>
<path d="M45.3789 32.2578C45.3679 32.259 45.3452 32.1452 45.3133 31.938C45.2792 31.6955 45.2378 31.4024 45.1893 31.0596C45.0877 30.2775 44.9569 29.2714 44.8124 28.1585C44.6733 27.0238 44.5644 25.9944 44.4971 25.2483C44.4634 24.8754 44.4394 24.573 44.4272 24.3637C44.4146 24.1544 44.4127 24.0384 44.4238 24.0371C44.4348 24.0359 44.4575 24.1501 44.4892 24.3573C44.5223 24.5997 44.5625 24.8929 44.6095 25.236C44.7071 26.0183 44.8323 27.0254 44.971 28.1392C45.1101 29.273 45.2304 30.3009 45.3016 31.0467C45.3375 31.4196 45.3624 31.7219 45.3753 31.9313C45.3881 32.1406 45.39 32.2566 45.3789 32.2578Z" fill="#263238"/>
<path d="M57.8004 54.9125L37.4372 56.3888C36.8976 56.422 36.3532 56.3766 35.8317 56.2339C30.1118 54.6667 30.8862 47.3748 31.4374 46.2057L59.6168 45.3963C60.9541 45.358 61.9092 45.5946 62.935 46.3153L57.8004 54.9125Z" fill="#010101"/>
<path d="M57.7325 55.0012C57.7313 55.0012 51.1653 55.4816 48.9904 55.6406C47.9156 55.7136 47.0592 55.7716 46.4601 55.8124C46.1738 55.8293 45.9497 55.8425 45.7864 55.852C45.7161 55.8548 45.6591 55.8573 45.6127 55.8591C45.5737 55.86 45.5538 55.8594 45.5535 55.8573C45.5532 55.8551 45.5728 55.8511 45.6115 55.8462C45.6575 55.841 45.7146 55.8349 45.7846 55.8269C45.9473 55.8115 46.171 55.7907 46.4564 55.7636C47.0546 55.7127 47.9103 55.6403 48.9837 55.5491C51.1579 55.3757 57.8575 54.8416 57.8575 54.8416L57.7325 55.0012Z" fill="#27282A"/>
<path d="M55.2588 50.5561C55.2588 53.3187 57.4984 55.5583 60.261 55.5583C63.0237 55.5583 65.2633 53.3187 65.2633 50.5561C65.2633 47.7934 63.0237 45.5538 60.261 45.5538C57.4984 45.5538 55.2588 47.7934 55.2588 50.5561Z" fill="#010101"/>
<path d="M63.2217 46.5225C64.5405 47.4488 65.4954 48.8717 65.7339 50.5751L68.812 78.4175L61.9246 79.5218L57.8008 54.9122L63.2217 46.5225Z" fill="#010101"/>
<path d="M57.8576 54.8416C57.8576 54.8416 58.589 59.1843 58.9822 61.5203C59.8385 66.6859 60.6138 71.3625 61.177 74.7601C61.4489 76.4479 61.6696 77.8171 61.8243 78.7762C61.8961 79.2428 61.9526 79.6089 61.9925 79.8695C62.009 79.9877 62.0219 80.0816 62.0321 80.1543C62.04 80.2188 62.0428 80.2522 62.04 80.2526C62.0373 80.2529 62.0293 80.2206 62.0158 80.1571C62.0017 80.085 61.9836 79.992 61.9606 79.8747C61.9136 79.6154 61.8473 79.2507 61.7629 78.7864C61.5962 77.8294 61.3587 76.463 61.0656 74.7789C60.4904 71.3833 59.6988 66.7092 58.8244 61.5467C58.4346 59.2101 57.7327 55.0012 57.7327 55.0012L57.8576 54.8416Z" fill="#27282A"/>
<path d="M59.9503 52.7291C59.9792 52.7656 59.4427 53.2263 58.8344 53.8466C58.2236 54.465 57.7715 55.0086 57.7346 54.9804C57.7009 54.9558 58.1014 54.3616 58.7205 53.7346C59.3374 53.1057 59.9255 52.6956 59.9503 52.7291Z" fill="#27282A"/>
<path d="M57.0266 37.8816C56.9582 37.1676 57.4815 36.5335 58.1955 36.4652C58.9095 36.3969 59.5436 36.9202 59.6119 37.6342C59.6803 38.3482 59.157 38.9823 58.443 39.0506C57.7289 39.1189 57.0949 38.5956 57.0266 37.8816Z" fill="#B96A42"/>
<path d="M58.3829 36.4608C58.3829 36.4608 63.0806 36.8027 63.4876 36.8704C63.8946 36.9382 65.5264 37.5297 65.6515 37.9984C65.7765 38.4671 65.8313 39.8771 65.8313 39.8771C65.8313 39.8771 65.5713 40.1338 65.3507 39.6918C65.1302 39.2498 65.07 38.3399 65.07 38.3399L64.1646 38.0874L64.7219 38.8884L64.9913 40.8652C64.9913 40.8652 64.3758 40.868 64.2122 40.4045C64.0485 39.941 63.9996 39.4114 63.9996 39.4114L63.311 38.9331L63.8491 39.5328L64.1465 40.946C64.1465 40.946 63.6959 41.1409 63.5195 40.8377C63.3431 40.5345 63.2405 39.591 63.2405 39.591L61.3845 39.1353L60.2579 39.9116L58.1431 39.0451L58.3829 36.4608Z" fill="#B96A42"/>
<path d="M38.2957 37.934C37.6083 36.1787 38.4737 34.1986 40.2289 33.5112C41.9841 32.8238 43.9642 33.6892 44.6517 35.4444C45.3391 37.1996 44.4737 39.1797 42.7185 39.8672C40.9632 40.5546 38.9831 39.6892 38.2957 37.934Z" fill="url(#paint13_linear_5_704)"/>
<path d="M38.2957 37.934C37.6083 36.1787 38.4737 34.1986 40.2289 33.5112C41.9841 32.8238 43.9642 33.6892 44.6517 35.4444C45.3391 37.1996 44.4737 39.1797 42.7185 39.8672C40.9632 40.5546 38.9831 39.6892 38.2957 37.934Z" stroke="black" stroke-width="0.153462" stroke-miterlimit="10"/>
<path d="M40.437 39.9511C41.5956 40.3321 43.05 40.2788 44.5101 40.361C44.5101 40.361 58.6266 40.3132 59.019 39.9475C59.2946 39.6904 58.8432 36.08 58.8432 36.08L42.5313 33.496" fill="url(#paint14_linear_5_704)"/>
<path d="M42.4517 33.4348L58.8429 36.08C58.8429 36.08 59.2292 39.9259 59.019 39.9474C57.7084 40.0822 42.7032 40.8056 40.4289 39.9299" stroke="black" stroke-width="0.153462" stroke-miterlimit="10"/>
<path d="M38.248 25.6471C38.248 25.6471 35.2237 26.4572 33.5102 29.8936L36.8268 36.3559C37.4529 37.1801 37.9872 38.1634 38.64 38.7118L43.953 34.2326C43.7514 33.9503 38.248 25.6471 38.248 25.6471Z" fill="url(#paint15_linear_5_704)"/>
<path d="M38.4045 25.6743C38.8948 26.3365 43.898 34.2866 43.898 34.2866" stroke="black" stroke-width="0.153462" stroke-miterlimit="10"/>
<path d="M38.7734 38.7531C38.7734 38.7531 38.0564 37.6993 37.0882 36.3893C34.8842 33.4067 34.4827 32.1039 34.4336 31.9594" stroke="black" stroke-width="0.153462" stroke-miterlimit="10"/>
<path d="M42.7632 15.4025L41.3744 20.8485L35.6775 17.2926L36.9522 12.9761L42.7632 15.4025Z" fill="#B96A42"/>
<path d="M43.1882 13.3265L41.9183 18.3406L36.0572 15.6093L37.3771 10.9001L43.1882 13.3265Z" fill="#B96A42"/>
<path d="M44.6433 22.3298L41.7363 19.4212L38.3917 17.6936L35.2103 16.4707L33.88 17.6007L33.7672 18.279L34.158 18.9548L36.1691 18.441L38.0119 19.0707L40.7217 20.7319L42.6276 21.6175L44.6433 22.3298Z" fill="url(#paint16_linear_5_704)"/>
<path d="M45.0565 7.92043L46.3743 10.5677C46.6013 11.024 46.439 11.5779 46.0015 11.8391L44.9109 12.4908L45.0565 7.92043Z" fill="#B96A42"/>
<path d="M41.1324 17.0722C43.8644 16.7772 45.8399 14.3234 45.5451 11.5915L45.034 6.85852C44.739 4.12647 42.2853 2.15095 39.5533 2.44594C36.8212 2.74074 34.8455 5.19443 35.1405 7.92648L35.6517 12.6598C35.9465 15.3917 38.4003 17.3672 41.1324 17.0722Z" fill="#B96A42"/>
<path d="M39.516 9.06289L39.783 13.7848C38.4789 13.8586 37.3622 12.8616 37.2883 11.5577C37.2147 10.2537 38.2121 9.13657 39.516 9.06289Z" fill="#F3AF8D"/>
<path d="M39.1311 9.97626L39.2704 12.825C38.4838 12.8635 37.8151 12.257 37.7764 11.4704C37.738 10.6838 38.3445 10.0149 39.1311 9.97626Z" fill="#B96A42"/>
<path d="M38.26 2.76905C36.8163 3.35965 35.5638 4.61776 35.1198 6.113C34.8108 7.15438 35.3086 10.8055 35.4809 11.2438C35.763 11.9617 36.5013 10.9846 36.6594 11.2316C36.8175 11.4786 36.8868 11.7742 37.0446 12.0216C37.2024 12.269 37.5082 12.4692 37.7811 12.3621C37.9695 12.2881 36.7385 9.82238 39.1862 9.13408C40.0725 8.88503 39.5569 10.9739 40.289 11.3901C40.8178 11.6907 41.3256 11.7722 41.1667 10.9066C41.0078 10.0411 40.6042 8.53781 40.9278 6.82273C41.0824 6.00307 41.4697 5.15605 41.9484 4.64756C42.2677 4.30818 42.4082 4.82688 43.0493 4.56924C43.6645 4.32187 43.348 3.61031 43.348 3.61031C43.3416 3.56555 43.244 3.18502 43.0717 3.06603C41.7883 2.17939 39.7037 2.17846 38.26 2.76905Z" fill="#263238"/>
<path d="M39.6841 4.06836C39.1122 4.87524 41.0694 5.62555 41.0694 5.62555C41.2437 5.8287 42.5736 5.62687 42.8406 5.60966C43.1077 5.59242 43.374 4.97731 43.5207 4.75353C43.6288 4.93541 44.3955 4.99831 44.6025 4.95483C44.8095 4.91135 45.1257 4.67633 44.9721 4.28872C44.7985 3.85012 43.4639 3.18791 42.6887 3.17101C41.346 3.14159 40.2584 3.258 39.6841 4.06836Z" fill="#263238"/>
<path d="M38.7581 5.31585C38.706 7.15822 39.8281 9.13514 41.6036 9.76691C41.9292 9.88292 42.0682 9.3661 41.7457 9.25133C40.1945 8.69941 39.2478 6.9064 39.2927 5.31585C39.3025 4.97082 38.7679 4.97189 38.7581 5.31585Z" fill="url(#paint17_linear_5_704)"/>
<path d="M41.8574 11.235V14.1873C41.8574 14.1873 41.9944 15.2143 41.1722 15.3426C40.3501 15.471 33.5384 14.5683 32.5393 8.0685C31.717 2.71978 37.1069 0.23798 38.8884 0.0241233C41.0631 -0.237138 46.6535 1.60737 47.0646 6.35694C46.014 6.35694 44.0041 6.61357 42.4056 7.25549C41.4462 8.02573 41.8574 11.235 41.8574 11.235Z" fill="url(#paint18_linear_5_704)"/>
<g opacity="0.48">
<path d="M47.0646 6.35704C47.0646 6.35704 47.7953 11.62 47.3385 12.0052C46.8818 12.3903 41.7202 12.5188 41.7202 12.5188C41.7202 12.5188 41.525 8.56528 41.8116 7.68348C42.1313 6.69939 46.4708 5.97192 47.0646 6.35704Z" fill="#010101"/>
<path d="M47.0644 6.35704C47.0644 6.35704 47.7953 11.62 47.3385 12.0052C46.8818 12.3903 41.7202 12.5188 41.7202 12.5188C41.7202 12.5188 41.525 8.56528 41.8116 7.68348C42.1313 6.69939 46.4706 5.97192 47.0644 6.35704Z" fill="#010101" stroke="white" stroke-width="0.178213" stroke-miterlimit="10"/>
</g>
<path d="M29.8045 56.5877C29.8045 57.8876 28.741 58.9511 27.4412 58.9511H0.262978C-1.03685 58.9511 -2.10034 57.8876 -2.10034 56.5877V28.2279C-2.10034 26.9281 -1.03685 25.8646 0.262978 25.8646H27.4412C28.741 25.8646 29.8045 26.9281 29.8045 28.2279V56.5877Z" fill="url(#paint19_linear_5_704)"/>
<path d="M13.4979 37.2105C9.08867 37.2105 5.51392 40.7808 5.51392 45.1846C5.51392 49.5886 9.08867 53.1587 13.4979 53.1587C17.9069 53.1587 21.4815 49.5886 21.4815 45.1846C21.4815 40.7808 17.9069 37.2105 13.4979 37.2105ZM17.6571 42.5911C17.245 43.3837 16.4719 44.1865 15.6426 43.9115L14.2478 46.3899L16.7607 49.4705C16.9465 49.7169 16.8198 50.1234 16.4766 50.382L16.3838 50.4522C16.0406 50.7107 15.6152 50.7209 15.4297 50.4744L13.5052 47.7086L11.9079 50.5458C11.7465 50.8086 11.322 50.8391 10.9559 50.6141L10.8569 50.5529C10.4911 50.3281 10.3259 49.9358 10.4873 49.673L12.6355 46.4586L11.0949 44.2444C10.2474 44.6748 9.47082 44.3612 8.80933 43.4832C8.13791 42.5927 8.22417 41.0058 8.88732 40.5057C9.56347 39.9961 11.0947 40.3497 11.7727 41.2492C12.4413 42.1361 12.507 42.9 11.9483 43.5711L13.3868 45.3344L14.7049 43.3629C14.0394 42.7704 14.3412 41.741 14.7966 41.0336C14.8271 40.9866 14.8585 40.9398 14.8923 40.8921C15.3671 40.2197 15.7317 39.8239 16.1056 39.6754L15.1163 41.5812C15.0787 41.6422 15.1241 41.7379 15.2172 41.7953C15.3111 41.8528 15.4169 41.8499 15.4543 41.789L16.9441 39.7154C16.977 39.7288 17.0093 39.7442 17.0431 39.7598L15.8605 42.0388C15.823 42.0995 15.8686 42.1952 15.9617 42.2529C16.0553 42.3101 16.1611 42.307 16.1985 42.246L17.6968 40.1628C17.7254 40.1854 17.754 40.2091 17.78 40.232L16.6047 42.4963C16.5676 42.557 16.6125 42.6527 16.7061 42.7102C16.7997 42.7676 16.9056 42.7648 16.9429 42.704L18.1851 40.9743C18.2149 41.3732 18.0301 41.874 17.6571 42.5911Z" fill="url(#paint20_linear_5_704)"/>
<path d="M29.8045 34.8452H-2.10034V31.7729H29.8045V34.8452Z" fill="#222020"/>
<defs>
<linearGradient id="paint0_linear_5_704" x1="87.678" y1="66.9778" x2="87.678" y2="85.876" gradientUnits="userSpaceOnUse">
<stop stop-color="#666769"/>
<stop offset="1" stop-color="#010101"/>
</linearGradient>
<linearGradient id="paint1_linear_5_704" x1="40.959" y1="42.0524" x2="40.959" y2="91.0965" gradientUnits="userSpaceOnUse">
<stop stop-color="#666769"/>
<stop offset="1" stop-color="#010101"/>
</linearGradient>
<linearGradient id="paint2_linear_5_704" x1="31.0153" y1="62.4034" x2="31.0153" y2="76.6741" gradientUnits="userSpaceOnUse">
<stop stop-color="#666769"/>
<stop offset="1" stop-color="#010101"/>
</linearGradient>
<linearGradient id="paint3_linear_5_704" x1="68.0699" y1="30.6999" x2="68.0699" y2="44.3439" gradientUnits="userSpaceOnUse">
<stop stop-color="#666769"/>
<stop offset="1" stop-color="#010101"/>
</linearGradient>
<linearGradient id="paint4_linear_5_704" x1="60.2566" y1="42.661" x2="60.2566" y2="87.5261" gradientUnits="userSpaceOnUse">
<stop offset="0.28125" stop-color="#393A3A"/>
<stop offset="1" stop-color="#010101"/>
</linearGradient>
<linearGradient id="paint5_linear_5_704" x1="17.0889" y1="71.6175" x2="17.0889" y2="82.3206" gradientUnits="userSpaceOnUse">
<stop stop-color="#666769"/>
<stop offset="1" stop-color="#010101"/>
</linearGradient>
<linearGradient id="paint6_linear_5_704" x1="17.0889" y1="71.6175" x2="17.0889" y2="82.3206" gradientUnits="userSpaceOnUse">
<stop stop-color="#666769"/>
<stop offset="1" stop-color="#010101"/>
</linearGradient>
<linearGradient id="paint7_linear_5_704" x1="82.5817" y1="66.9776" x2="82.5817" y2="85.0682" gradientUnits="userSpaceOnUse">
<stop stop-color="#666769"/>
<stop offset="1" stop-color="#010101"/>
</linearGradient>
<linearGradient id="paint8_linear_5_704" x1="48.5228" y1="30.0513" x2="48.8172" y2="36.2395" gradientUnits="userSpaceOnUse">
<stop stop-color="#666769"/>
<stop offset="1" stop-color="#010101"/>
</linearGradient>
<linearGradient id="paint9_linear_5_704" x1="54.5357" y1="30.5114" x2="54.8905" y2="37.9686" gradientUnits="userSpaceOnUse">
<stop stop-color="#666769"/>
<stop offset="1" stop-color="#010101"/>
</linearGradient>
<linearGradient id="paint10_linear_5_704" x1="46.313" y1="21.708" x2="45.9176" y2="35.3408" gradientUnits="userSpaceOnUse">
<stop stop-color="#666769"/>
<stop offset="1" stop-color="#010101"/>
</linearGradient>
<linearGradient id="paint11_linear_5_704" x1="38.9516" y1="38.5636" x2="38.9516" y2="54.5507" gradientUnits="userSpaceOnUse">
<stop stop-color="#666769"/>
<stop offset="1" stop-color="#010101"/>
</linearGradient>
<linearGradient id="paint12_linear_5_704" x1="38.5414" y1="17.0551" x2="38.5414" y2="47.3717" gradientUnits="userSpaceOnUse">
<stop stop-color="#666769"/>
<stop offset="1" stop-color="#010101"/>
</linearGradient>
<linearGradient id="paint13_linear_5_704" x1="41.0076" y1="33.3073" x2="41.9398" y2="40.0711" gradientUnits="userSpaceOnUse">
<stop stop-color="#666769"/>
<stop offset="1" stop-color="#010101"/>
</linearGradient>
<linearGradient id="paint14_linear_5_704" x1="48.8963" y1="32.6188" x2="50.0809" y2="41.2139" gradientUnits="userSpaceOnUse">
<stop stop-color="#666769"/>
<stop offset="1" stop-color="#010101"/>
</linearGradient>
<linearGradient id="paint15_linear_5_704" x1="40.1299" y1="26.0874" x2="37.2518" y2="38.387" gradientUnits="userSpaceOnUse">
<stop stop-color="#666769"/>
<stop offset="1" stop-color="#010101"/>
</linearGradient>
<linearGradient id="paint16_linear_5_704" x1="38.5889" y1="15.9883" x2="39.5974" y2="23.0504" gradientUnits="userSpaceOnUse">
<stop stop-color="#666769"/>
<stop offset="1" stop-color="#010101"/>
</linearGradient>
<linearGradient id="paint17_linear_5_704" x1="40.3426" y1="5.05748" x2="40.3426" y2="9.78376" gradientUnits="userSpaceOnUse">
<stop stop-color="#666769"/>
<stop offset="1" stop-color="#010101"/>
</linearGradient>
<linearGradient id="paint18_linear_5_704" x1="39.7596" y1="0" x2="39.7596" y2="15.3537" gradientUnits="userSpaceOnUse">
<stop stop-color="#666769"/>
<stop offset="1" stop-color="#010101"/>
</linearGradient>
<linearGradient id="paint19_linear_5_704" x1="13.8521" y1="25.8646" x2="13.8521" y2="58.9511" gradientUnits="userSpaceOnUse">
<stop stop-color="#666769"/>
<stop offset="1" stop-color="#010101"/>
</linearGradient>
<linearGradient id="paint20_linear_5_704" x1="13.4977" y1="37.2105" x2="13.4977" y2="53.1587" gradientUnits="userSpaceOnUse">
<stop stop-color="#666769"/>
<stop offset="1" stop-color="#010101"/>
</linearGradient>
</defs>
</svg>
