<svg width="312" height="313" viewBox="0 0 312 313" fill="none" xmlns="http://www.w3.org/2000/svg">
<path d="M302.472 152.306C307.526 178.091 317.768 230.35 293.258 265.311C249.461 327.783 99.3634 325.101 33.5948 244.293C29.0016 238.649 -9.52029 189.755 2.21323 127.573C17.3332 47.4446 107.559 -10.5282 179.167 5.18187C224.467 15.1204 253.466 52.5991 265.234 67.8265C270.241 74.3062 293.173 104.854 302.472 152.306Z" fill="#F4F7FA"/>
<path d="M66.9381 155.016C67.0251 155.081 67.1124 155.145 67.2001 155.209C72.3833 159.001 78.7177 162.23 86.508 164.335C88.0554 164.638 89.6029 164.941 91.1504 165.244C93.279 161.895 94.7041 158.329 90.3572 155.833C83.6064 151.956 86.4296 139.144 89.4811 135.094C93.2578 130.081 101.812 118.228 91.4702 112.07C82.8606 106.944 76.257 105.395 78.4181 93.2673C80.5793 81.1394 75.7976 72.1332 64.7703 70.2947C53.1657 68.3601 47.367 50.9462 36.8089 53.8356C18.412 58.8704 26.9946 88.7312 45.0403 101.036C63.086 113.341 50.0254 117.818 47.1885 127.492C43.3157 140.699 62.0741 142.089 65.6172 148.467C66.8174 150.627 67.1176 152.884 66.9381 155.016Z" fill="url(#paint0_linear_2_720)"/>
<g style="mix-blend-mode:soft-light">
<g style="mix-blend-mode:soft-light">
<g style="mix-blend-mode:soft-light">
<path d="M77.3158 161.003L77.8699 161.019C79.0225 120.51 60.5092 79.6399 29.5547 54.3583L29.2042 54.7877C60.0282 79.9628 78.4635 120.662 77.3158 161.003Z" fill="#FCFDFE"/>
</g>
</g>
<g style="mix-blend-mode:soft-light">
<g style="mix-blend-mode:soft-light">
<path d="M76.0519 138.864L76.592 138.989C80.1797 123.472 96.2603 114.448 96.4223 114.358L96.1546 113.873C95.9905 113.963 79.6964 123.102 76.0519 138.864Z" fill="#FCFDFE"/>
</g>
</g>
<g style="mix-blend-mode:soft-light">
<g style="mix-blend-mode:soft-light">
<path d="M77.3245 153.545L77.8592 153.399C73.5907 137.827 45.4601 129.258 45.1764 129.173L45.0177 129.705C45.2983 129.788 73.1373 138.269 77.3245 153.545Z" fill="#FCFDFE"/>
</g>
</g>
<g style="mix-blend-mode:soft-light">
<g style="mix-blend-mode:soft-light">
<path d="M64.643 100.816L65.1883 100.716C62.8691 88.1188 74.4151 72.2292 74.532 72.0702L74.0855 71.7417C73.9671 71.9026 62.2808 87.9862 64.643 100.816Z" fill="#FCFDFE"/>
</g>
</g>
<g style="mix-blend-mode:soft-light">
<g style="mix-blend-mode:soft-light">
<path d="M51.6291 78.6113L52.0185 78.2166C41.6254 67.9695 21.9103 67.7444 21.7121 67.7435L21.709 68.2979C21.9048 68.2986 41.398 68.5237 51.6291 78.6113Z" fill="#FCFDFE"/>
</g>
</g>
</g>
<path d="M96.8048 175.7L69.3366 176.731C69.3366 176.731 63.6372 162.835 69.9953 152.638C82.9679 131.834 63.8414 121.924 56.4514 116.575C45.3065 108.508 40.1247 97.7392 52.878 90.1489C67.3076 81.5608 53.5202 60.6605 33.6439 50.2266C14.1935 40.0164 21.1197 -0.450454 65.2467 17.7829C91.5993 28.6717 88.5725 56.2922 90.3599 70.6036C92.1473 84.9151 113.547 85.3015 106.896 103.116C101.216 118.333 89.7648 129.703 99.2033 139.664C108.642 149.625 110.012 161.139 96.8048 175.7Z" fill="url(#paint1_linear_2_720)"/>
<g style="mix-blend-mode:soft-light">
<g style="mix-blend-mode:soft-light">
<g style="mix-blend-mode:soft-light">
<path d="M85.0121 178.696L84.4378 178.613C84.4893 178.257 89.5167 142.626 83.8499 105.8C78.6295 71.8741 62.9996 29.963 18.1864 22.9598L18.2758 22.3864C38.2246 25.5037 54.148 35.6775 65.6041 52.6247C74.7555 66.1626 81.0879 84.0276 84.4253 105.724C90.1027 142.633 85.0635 178.339 85.0121 178.696Z" fill="#BEB8F2"/>
</g>
</g>
<g style="mix-blend-mode:soft-light">
<g style="mix-blend-mode:soft-light">
<path d="M70.0854 59.9133L69.5071 59.8629C71.1728 40.6211 62.8551 13.6893 62.771 13.4195L63.3249 13.2464C63.4093 13.5174 71.7608 40.5587 70.0854 59.9133Z" fill="#BEB8F2"/>
</g>
</g>
<g style="mix-blend-mode:soft-light">
<g style="mix-blend-mode:soft-light">
<path d="M62.143 48.8305C42.1661 37.4011 24.1471 43.9213 23.9676 43.9885L23.7643 43.4452C23.9465 43.3767 42.2093 36.7575 62.4311 48.3268L62.143 48.8305Z" fill="#BEB8F2"/>
</g>
</g>
<g style="mix-blend-mode:soft-light">
<g style="mix-blend-mode:soft-light">
<path d="M86.243 130.077C78.7333 102.981 41.2977 97.6715 40.9287 97.6502L40.9241 97.0705C41.2882 97.057 79.2258 102.585 86.8021 129.922L86.243 130.077Z" fill="#BEB8F2"/>
</g>
</g>
<g style="mix-blend-mode:soft-light">
<g style="mix-blend-mode:soft-light">
<path d="M85.9873 118.486L85.4149 118.389C88.4071 100.698 106.995 87.9047 107.183 87.7775L107.509 88.2575C107.323 88.3835 88.9373 101.042 85.9873 118.486Z" fill="#BEB8F2"/>
</g>
</g>
<g style="mix-blend-mode:soft-light">
<g style="mix-blend-mode:soft-light">
<path d="M85.1054 172.988C83.8698 162.378 68.3609 154.523 68.2046 154.445L68.4637 153.926C69.1141 154.25 84.4099 161.998 85.6817 172.921L85.1054 172.988Z" fill="#BEB8F2"/>
</g>
</g>
<g style="mix-blend-mode:soft-light">
<g style="mix-blend-mode:soft-light">
<path d="M86.4096 164.567L85.8343 164.49C86.9425 156.118 99.1697 146.378 103.188 143.178C103.755 142.725 104.246 142.335 104.319 142.248L104.767 142.617C104.665 142.741 104.34 143.002 103.549 143.632C99.5766 146.796 87.4871 156.426 86.4096 164.567Z" fill="#BEB8F2"/>
</g>
</g>
</g>
<path d="M221.617 162.063C224.763 168.54 222.001 175.128 219.316 179.577C218.656 179.593 218.277 179.783 217.613 179.958C211.623 181.533 208.787 180.84 202.679 181.397C201.364 181.516 197.435 180.608 195.854 180.125L192.922 179.174C192.922 179.174 187.456 163.38 195.5 158.841C203.544 154.301 200.14 138.545 199.299 129.934C197.016 106.567 222.343 108.226 221.811 77.9648C221.669 69.9164 218.707 54.6151 225.374 48.0789C232.969 40.6323 238.746 47.6917 243.603 41.4924C251.195 31.8031 263.738 28.145 271.435 37.8292C279.032 47.3869 270.378 66.8538 248.262 82.781C233.69 96.0046 233.531 99.8854 234.872 109.304C235.811 115.901 242.438 133.01 233.59 140.055C224.742 147.1 218.02 154.66 221.617 162.063Z" fill="#F7A18A"/>
<g style="mix-blend-mode:soft-light">
<g style="mix-blend-mode:soft-light">
<g style="mix-blend-mode:soft-light">
<path d="M205.868 181.584L205.421 181.536C205.703 178.869 206.021 176.183 206.365 173.553C208.915 154.075 213.19 135.54 219.073 118.462C224.058 103.992 230.265 90.3633 237.519 77.9547C243.354 67.9758 249.895 58.7283 256.961 50.4689C261.929 44.6628 267.103 39.4013 272.34 34.8308C273.252 34.0341 274.23 33.2704 275.175 32.5318C276.435 31.5479 277.738 30.5304 278.896 29.4269L279.206 29.7529C278.032 30.8716 276.721 31.8959 275.453 32.8866C274.512 33.6215 273.539 34.3814 272.636 35.17C267.415 39.7262 262.257 44.9719 257.303 50.7616C250.254 59.0004 243.729 68.2262 237.908 78.182C230.668 90.565 224.474 104.167 219.499 118.609C213.626 135.658 209.357 154.163 206.811 173.611C206.467 176.238 206.15 178.92 205.868 181.584Z" fill="#F7A18A"/>
</g>
</g>
<g style="mix-blend-mode:soft-light">
<g style="mix-blend-mode:soft-light">
<path d="M229.707 93.6414L229.296 93.4579C237.176 75.819 229.372 43.6459 229.292 43.323L229.73 43.2149C229.81 43.5394 237.65 75.8614 229.707 93.6414Z" fill="#F7A18A"/>
</g>
</g>
<g style="mix-blend-mode:soft-light">
<g style="mix-blend-mode:soft-light">
<path d="M211.988 144.917L211.559 144.782C215.511 132.168 238.801 122.056 239.036 121.955L239.214 122.369C238.981 122.469 215.879 132.5 211.988 144.917Z" fill="#F7A18A"/>
</g>
</g>
<g style="mix-blend-mode:soft-light">
<g style="mix-blend-mode:soft-light">
<path d="M210.364 152.268L209.917 152.211C211.001 143.65 207.905 131.397 201.199 117.709C200.862 117.02 200.862 117.02 200.871 116.935L201.318 116.987L201.095 116.961L201.311 116.901C201.328 116.95 201.455 117.209 201.603 117.511C208.347 131.277 211.458 143.621 210.364 152.268Z" fill="#F7A18A"/>
</g>
</g>
<g style="mix-blend-mode:soft-light">
<g style="mix-blend-mode:soft-light">
<path d="M206.452 176.724L206.041 176.542C209.883 167.849 223.497 164.194 223.634 164.158L223.748 164.593C223.613 164.629 210.206 168.23 206.452 176.724Z" fill="#F7A18A"/>
</g>
</g>
<g style="mix-blend-mode:soft-light">
<g style="mix-blend-mode:soft-light">
<path d="M205.189 181.631C203.354 174.19 199.323 167.032 192.865 159.749L193.202 159.45C199.71 166.79 203.773 174.01 205.626 181.524L205.189 181.631Z" fill="#F7A18A"/>
</g>
</g>
<g style="mix-blend-mode:soft-light">
<g style="mix-blend-mode:soft-light">
<path d="M253.221 55.6941L252.821 55.4879C257.749 45.9252 260.71 34.7365 261.682 31.0598C261.918 30.1698 262.002 29.8568 262.05 29.7529L262.458 29.9422C262.423 30.0221 262.288 30.5309 262.118 31.1751C261.142 34.8634 258.172 46.0877 253.221 55.6941Z" fill="#F7A18A"/>
</g>
</g>
<g style="mix-blend-mode:soft-light">
<g style="mix-blend-mode:soft-light">
<path d="M242.909 70.0573L242.588 69.7423C249.645 62.5333 269.82 62.3857 270.675 62.3829L270.676 62.8331C270.469 62.8338 249.835 62.983 242.909 70.0573Z" fill="#F7A18A"/>
</g>
</g>
</g>
<path d="M185.811 217.532L212.259 225.021C212.259 225.021 221.079 212.863 217.309 201.454C209.616 178.174 230.542 173.061 238.986 169.609C251.721 164.402 259.299 155.162 248.699 144.775C236.706 133.022 255.039 115.969 276.817 110.524C298.129 105.196 300.955 64.238 253.77 71.5345C225.592 75.892 222.01 103.446 216.893 116.93C211.777 130.415 190.891 125.737 193.146 144.618C195.073 160.746 203.515 174.499 191.991 181.949C180.467 189.399 176.417 200.263 185.811 217.532Z" fill="#F7A48B"/>
<g style="mix-blend-mode:soft-light">
<g style="mix-blend-mode:soft-light">
<g style="mix-blend-mode:soft-light">
<path d="M196.563 223.228L197.14 223.283C197.174 222.925 200.704 187.114 214.907 152.669C227.992 120.935 253.078 83.9008 298.277 87.6788L298.325 87.1006C278.205 85.4186 260.329 91.5441 245.195 105.306C233.105 116.3 222.733 132.164 214.366 152.458C200.133 186.983 196.597 222.869 196.563 223.228Z" fill="#F7A48B"/>
</g>
</g>
<g style="mix-blend-mode:soft-light">
<g style="mix-blend-mode:soft-light">
<path d="M239.119 111.331L239.693 111.418C242.618 92.3273 257.061 68.1215 257.206 67.8792L256.709 67.5801C256.563 67.8236 242.062 92.1277 239.119 111.331Z" fill="#F7A48B"/>
</g>
</g>
<g style="mix-blend-mode:soft-light">
<g style="mix-blend-mode:soft-light">
<path d="M249.454 102.437C271.565 96.0487 287.535 106.64 287.693 106.748L288.019 106.268C287.858 106.158 271.675 95.413 249.293 101.879L249.454 102.437Z" fill="#F7A48B"/>
</g>
</g>
<g style="mix-blend-mode:soft-light">
<g style="mix-blend-mode:soft-light">
<path d="M206.848 175.694C220.545 151.138 258.175 154.819 258.539 154.886L258.68 154.323C258.33 154.224 220.159 150.637 206.342 175.411L206.848 175.694Z" fill="#F7A48B"/>
</g>
</g>
<g style="mix-blend-mode:soft-light">
<g style="mix-blend-mode:soft-light">
<path d="M209.834 164.491L210.413 164.532C211.684 146.635 196.643 129.813 196.491 129.645L196.061 130.035C196.211 130.201 211.087 146.843 209.834 164.491Z" fill="#F7A48B"/>
</g>
</g>
<g style="mix-blend-mode:soft-light">
<g style="mix-blend-mode:soft-light">
<path d="M197.82 217.66C201.526 207.642 218.451 203.671 218.622 203.632L218.493 203.067C217.784 203.228 201.091 207.145 197.276 217.459L197.82 217.66Z" fill="#F7A48B"/>
</g>
</g>
<g style="mix-blend-mode:soft-light">
<g style="mix-blend-mode:soft-light">
<path d="M198.542 209.168L199.119 209.23C200.019 200.833 190.438 188.481 187.29 184.422C186.845 183.849 186.461 183.354 186.409 183.252L185.887 183.505C185.957 183.649 186.212 183.979 186.831 184.778C189.944 188.791 199.417 201.004 198.542 209.168Z" fill="#F7A48B"/>
</g>
</g>
</g>
<path d="M210.559 224.67C210.463 224.72 210.367 224.77 210.271 224.82C204.568 227.774 197.814 229.994 189.793 230.88C188.217 230.943 186.642 231.005 185.066 231.068C183.475 227.433 182.613 223.691 187.291 221.889C194.556 219.092 193.729 205.999 191.334 201.53C188.369 195.997 181.731 182.974 192.895 178.473C202.188 174.725 208.951 174.207 208.673 161.891C208.395 149.575 214.499 141.408 225.678 141.28C237.442 141.146 245.84 124.825 255.831 129.298C273.239 137.091 260.184 165.285 240.467 174.681C220.749 184.076 232.97 190.501 234.291 200.495C236.096 214.14 217.346 212.64 212.868 218.4C211.351 220.351 210.708 222.535 210.559 224.67Z" fill="url(#paint2_linear_2_720)"/>
<g style="mix-blend-mode:soft-light">
<g style="mix-blend-mode:soft-light">
<g style="mix-blend-mode:soft-light">
<path d="M199.387 228.996L198.837 228.927C203.903 188.72 228.458 151.168 262.92 130.926L263.2 131.404C228.884 151.56 204.432 188.956 199.387 228.996Z" fill="#FCFDFE"/>
</g>
</g>
<g style="mix-blend-mode:soft-light">
<g style="mix-blend-mode:soft-light">
<path d="M204.027 207.311L203.474 207.352C202.306 191.469 187.797 180.088 187.65 179.975L187.989 179.537C188.138 179.651 202.84 191.178 204.027 207.311Z" fill="#FCFDFE"/>
</g>
</g>
<g style="mix-blend-mode:soft-light">
<g style="mix-blend-mode:soft-light">
<path d="M200.521 221.625L200.015 221.398C206.618 206.664 235.729 202.505 236.023 202.465L236.098 203.014C235.808 203.054 206.998 207.171 200.521 221.625Z" fill="#FCFDFE"/>
</g>
</g>
<g style="mix-blend-mode:soft-light">
<g style="mix-blend-mode:soft-light">
<path d="M221.129 171.461L220.606 171.278C224.827 159.185 215.851 141.714 215.76 141.539L216.252 141.283C216.344 141.46 225.429 159.144 221.129 171.461Z" fill="#FCFDFE"/>
</g>
</g>
<g style="mix-blend-mode:soft-light">
<g style="mix-blend-mode:soft-light">
<path d="M237.391 151.511L237.066 151.061C248.906 142.527 268.423 145.325 268.619 145.354L268.537 145.902C268.344 145.873 249.046 143.11 237.391 151.511Z" fill="#FCFDFE"/>
</g>
</g>
</g>
<path d="M222.335 12.0054V281.264C222.335 285.291 218.895 286.157 214.995 286.285L81.2957 293.199L79.2703 293.265C75.114 293.401 71.7078 290.104 71.7078 285.938V7.33183C71.7078 3.16553 75.114 -0.131898 79.2703 0.00406594L82.019 0.0939543L216.207 10.5307C220.108 10.6583 222.335 7.97884 222.335 12.0054Z" fill="black"/>
<path d="M226.5 12.0054V281.264C226.5 285.291 223.314 288.689 219.413 288.817L83.4353 293.265C79.2791 293.401 75.8728 290.104 75.8728 285.938V7.33184C75.8728 3.16553 79.2791 -0.13189 83.4353 0.00407357L219.413 4.45248C223.314 4.58009 226.5 7.97884 226.5 12.0054Z" fill="#24252C"/>
<path d="M222.1 26.8078V276.244C222.1 280.003 219.122 283.173 215.477 283.287L87.6146 287.304C83.7458 287.425 80.5752 284.349 80.5752 280.467V22.9034C80.5752 19.0216 83.7458 15.938 87.6146 16.0508L215.477 19.7796C219.122 19.8858 222.1 23.0485 222.1 26.8078Z" fill="url(#paint3_linear_2_720)"/>
<path d="M154.997 10.6086C154.997 12.0274 153.867 13.1434 152.472 13.1012C151.076 13.0589 149.944 11.8732 149.944 10.4528C149.944 9.03235 151.076 7.9165 152.472 7.96032C153.867 8.00414 154.997 9.18973 154.997 10.6086Z" fill="#46A5BA"/>
<path d="M202.257 178.286L100.14 179.655C98.8483 179.673 97.8008 178.639 97.8008 177.347V154.986C97.8008 153.694 98.8483 152.639 100.14 152.63L202.257 151.94C203.484 151.931 204.477 152.945 204.477 154.203V175.977C204.477 177.236 203.484 178.269 202.257 178.286Z" fill="#F4F7FA"/>
<path d="M165.904 168.774L110.171 169.382C108.275 169.403 106.723 167.864 106.723 165.961C106.723 164.058 108.275 162.488 110.171 162.47L165.904 161.957C167.747 161.94 169.253 163.459 169.253 165.332C169.253 167.205 167.747 168.754 165.904 168.774Z" fill="url(#paint4_linear_2_720)"/>
<path d="M202.025 219.474L100.384 221.893C98.9576 221.927 97.8008 220.797 97.8008 219.37V197.498C97.8008 196.071 98.9576 194.894 100.384 194.869L202.025 193.126C203.38 193.103 204.477 194.211 204.477 195.6V216.899C204.477 218.289 203.38 219.442 202.025 219.474Z" fill="#F4F7FA"/>
<path d="M115.05 208.021C115.05 210.446 113.092 212.453 110.674 212.506C108.252 212.558 106.288 210.63 106.288 208.2C106.288 205.77 108.252 203.762 110.674 203.715C113.092 203.668 115.05 205.596 115.05 208.021Z" fill="#46A5BA"/>
<path d="M131.087 207.693C131.087 209.887 129.321 211.705 127.141 211.752C124.959 211.799 123.188 210.054 123.188 207.854C123.188 205.655 124.959 203.837 127.141 203.795C129.321 203.753 131.087 205.498 131.087 207.693Z" fill="#46A5BA"/>
<path d="M148.246 207.342C148.246 210.005 146.112 212.21 143.477 212.267C140.839 212.324 138.698 210.206 138.698 207.537C138.698 204.868 140.839 202.662 143.477 202.611C146.112 202.56 148.246 204.678 148.246 207.342Z" fill="#46A5BA"/>
<path d="M163.495 207.03C163.495 209.169 161.788 210.941 159.679 210.986C157.569 211.032 155.855 209.33 155.855 207.186C155.855 205.041 157.569 203.27 159.679 203.229C161.788 203.188 163.495 204.89 163.495 207.03Z" fill="#46A5BA"/>
<path d="M191.946 79.0187C191.946 101.463 174.093 119.66 151.848 119.663C129.353 119.667 110.932 101.104 110.932 78.2031C110.932 55.3018 129.353 37.1103 151.848 37.5667C174.093 38.0181 191.946 56.5748 191.946 79.0187Z" fill="#46A5BA"/>
<path d="M168.381 66.4505C168.381 75.6983 160.997 83.1258 151.859 83.0401C142.687 82.9541 135.227 75.3377 135.227 66.0286C135.227 56.7196 142.687 49.293 151.859 49.4404C160.997 49.5873 168.381 57.2027 168.381 66.4505Z" fill="white"/>
<path d="M151.848 119.663C161.681 119.662 170.651 116.107 177.596 110.217C175.232 97.9914 164.638 88.6934 151.848 88.5965C138.976 88.4988 128.187 97.7434 125.765 110.103C132.867 116.079 141.966 119.665 151.848 119.663Z" fill="#F3F6F5"/>
<path d="M151.841 120.66C140.684 120.66 130.174 116.243 122.246 108.223C114.308 100.193 109.936 89.5316 109.936 78.2031C109.936 66.7788 114.371 56.1406 122.425 48.2487C130.339 40.4933 140.793 36.3433 151.868 36.5706C162.881 36.7942 173.211 41.3338 180.956 49.3534C188.685 57.3576 192.942 67.893 192.942 79.0186C192.942 90.148 188.683 100.602 180.949 108.455C173.199 116.323 162.865 120.658 151.848 120.66C151.846 120.66 151.843 120.66 151.841 120.66ZM151.015 38.5547C140.784 38.5547 131.155 42.484 123.82 49.6719C116.151 57.186 111.928 67.3185 111.928 78.2031C111.928 89.0038 116.096 99.1676 123.663 106.822C131.214 114.46 141.222 118.667 151.841 118.667C151.844 118.667 151.845 118.667 151.848 118.667C173.409 118.663 190.95 100.877 190.95 79.0186C190.95 57.1489 173.4 39.0007 151.828 38.5628C151.557 38.5573 151.285 38.5547 151.015 38.5547Z" fill="#46A5BA"/>
<path d="M247.619 237.728C252.078 235.034 250.209 220.758 243.654 210.923C234.346 196.958 214.862 190.854 211.079 195.259C207.207 199.766 219.432 215.685 221.418 218.271C228.622 227.652 242.343 240.916 247.619 237.728Z" fill="#46A5BA"/>
<path d="M298.261 296.779C297.497 297.791 297.457 299.532 298.27 300.315C299.069 301.086 300.103 300.363 303.201 300.18C306.52 299.984 307.454 300.688 309.648 299.868C310.534 299.535 312.085 298.783 311.996 298.137C311.934 297.683 311.096 297.52 308.286 296.848C304.297 295.896 304.307 295.823 303.473 295.761C301.376 295.602 299.271 295.443 298.261 296.779Z" fill="url(#paint5_linear_2_720)"/>
<path d="M298.198 291.306L301.684 295.929C301.669 296.251 300.423 297.769 298.842 297.684L294.654 293.495L298.198 291.306Z" fill="url(#paint6_linear_2_720)"/>
<path d="M280.254 308.547C279.51 309.575 279.507 311.316 280.337 312.082C281.151 312.836 282.17 312.091 285.264 311.843C288.578 311.577 289.526 312.262 291.702 311.395C292.582 311.044 294.116 310.26 294.014 309.615C293.943 309.163 293.101 309.018 290.277 308.406C286.269 307.537 286.278 307.464 285.442 307.419C283.343 307.305 281.235 307.19 280.254 308.547Z" fill="url(#paint7_linear_2_720)"/>
<path d="M280.119 303.183L283.605 307.806C283.59 308.128 282.344 309.646 280.763 309.561L276.575 305.372L280.119 303.183Z" fill="url(#paint8_linear_2_720)"/>
<path d="M174.584 197.551C179.801 195.553 187.798 193.158 197.745 192.787C208.943 192.37 217.937 192.034 224.345 197.095C245.664 213.932 235.214 258.301 233.673 263.237C231.84 269.108 228.354 273.095 228.354 273.095C226.263 275.487 224.211 276.885 223.1 277.62C207.063 288.231 197.094 294.828 186.568 292.132C185.168 291.774 178.804 289.566 175.291 284.272C174.665 283.328 174.273 282.118 174.174 280.428C172.539 252.498 175.833 224.454 174.584 197.551Z" fill="#46A5BA"/>
<g style="mix-blend-mode:multiply" opacity="0.3">
<path style="mix-blend-mode:multiply" opacity="0.3" d="M183.779 230.842C181.64 224.994 183.851 218.298 179.086 215.377C177.34 214.307 175.171 213.854 172.808 213.907C173.1 234.466 173.515 255.005 174.025 276.461C174.194 283.547 175.08 283.897 181.952 290.104C189.915 297.296 196.467 294.977 208.23 292.617C192.819 283.149 188.986 278.001 190.556 269.587C192.385 259.788 210.326 256.886 209.601 249.921C208.832 242.538 188.455 243.626 183.779 230.842Z" fill="url(#paint9_linear_2_720)"/>
</g>
<path d="M189.114 288.759C189.765 300.394 194.139 293.949 204.042 283.509C214.47 272.514 239.008 253.19 255.386 260.567C267.584 266.062 266.4 282.316 285.9 292.517C289.335 294.314 292.342 295.345 294.19 295.905C296.303 293.951 298.415 291.997 300.528 290.043C299.394 283.967 294.334 260.8 273.177 246.195C268.062 242.665 258.301 235.864 245.957 236.023C212.586 236.453 188.512 278.028 189.114 288.759Z" fill="#46A5BA"/>
<path d="M173.739 283.361C173.878 290.131 178.299 296.337 183.279 299.367C194.334 306.092 210.89 298.835 220.163 291.415C231.447 282.386 231.443 273.54 237.209 273.583C246.168 273.651 247.73 295.074 267.723 305.534C271.158 307.331 274.165 308.361 276.013 308.921C278.126 306.967 280.238 305.013 282.35 303.059C278.883 289.94 273.516 280.407 269.557 274.474C264.62 267.074 259.867 259.951 250.664 254.788C240.973 249.352 231.713 249.1 227.78 249.039C202.964 248.652 173.375 265.699 173.739 283.361Z" fill="#46A5BA"/>
<path d="M241.104 242.695L179.673 253.773L197.5 258.445L242.042 246.658L241.104 242.695Z" fill="url(#paint10_linear_2_720)"/>
<path d="M177.83 255.824L177.83 255.824C178.054 256.971 178.972 257.854 180.126 258.035L201.2 261.876L200.248 256.539L179.673 253.773C178.529 253.674 177.609 254.698 177.83 255.824Z" fill="url(#paint11_linear_2_720)"/>
<path d="M198.218 177.448C198.408 181.599 198.068 184.909 197.714 187.18C197.309 189.782 196.972 190.463 196.531 191.022C196.531 191.022 196.391 191.199 196.232 191.358C195.827 191.762 190.735 192.754 189.234 193.104C189.075 193.141 186.136 193.856 185.293 195.437C185.287 195.448 185.27 195.478 185.261 195.525C184.971 197.106 193.999 202.117 203.071 200.488C208.623 199.492 213.582 196.117 213.208 194.456C212.832 192.785 207.29 193.897 205.514 190.914C204.279 188.84 205.462 185.784 206.901 183.237C205.313 180.513 199.806 180.173 198.218 177.448Z" fill="url(#paint12_linear_2_720)"/>
<path d="M189.664 240.14C181.271 238.604 177.743 241.746 175.556 239.63C175.096 239.184 174.869 238.665 174.813 238.048C174.802 237.935 174.755 237.828 174.674 237.727C173.975 229.664 166.954 223.601 158.838 224.127C150.611 224.66 144.373 231.762 144.906 239.989C144.942 240.543 145.009 241.088 145.103 241.623C145.073 241.666 145.044 241.709 145.016 241.753C145.123 242.12 145.288 242.691 145.532 243.41C145.684 243.909 145.863 244.396 146.065 244.87C147.792 249.275 151.779 256.592 160.504 260.018C170.825 264.071 183.929 261.414 193.8 253.165C195.13 251.857 196.461 250.549 197.792 249.241C199.075 247.705 200.359 246.17 201.642 244.634C199.229 243.182 195.172 241.148 189.664 240.14Z" fill="#46A5BA"/>
<path d="M188.559 249.309C188.169 249.356 188.794 244.381 190.632 244.28C192.468 244.178 202.279 246.015 203.707 247.696C205.134 249.377 205.134 249.377 205.134 249.377C205.134 249.377 201.682 250.911 199.217 250.951C196.753 250.99 191.727 248.925 188.559 249.309Z" fill="url(#paint13_linear_2_720)"/>
<path d="M179.502 197.923C174.208 194.966 162.034 203.378 155.382 210.631C152.291 214.001 141.527 225.737 144.875 240.836C144.892 240.914 144.938 240.985 145.011 241.051C145.98 248.358 152.235 253.997 159.808 253.997C168.027 253.997 174.693 247.354 174.735 239.145C174.809 239.115 176.195 230.993 180.055 220.924C181.243 217.824 185.416 201.226 179.502 197.923Z" fill="#46A5BA"/>
<path d="M198.366 218.203L197.018 258.479C196.971 259.869 199.057 261.776 200.437 261.605L264.491 252.758C265.544 252.627 266.366 251.782 266.465 250.725L271.608 211.534C271.742 210.112 269.108 208.853 267.687 209.002L200.392 216.028C199.268 216.146 198.404 217.074 198.366 218.203Z" fill="#3891A5"/>
<path d="M199.925 219.256L198.577 259.532C198.531 260.922 199.737 262.024 201.117 261.854L266.05 253.811C267.104 253.68 267.925 252.835 268.025 251.778L271.734 212.518C271.868 211.095 270.667 209.906 269.246 210.054L201.951 217.081C200.828 217.198 199.963 218.127 199.925 219.256Z" fill="#3891A5"/>
<g style="mix-blend-mode:multiply" opacity="0.3">
<path style="mix-blend-mode:multiply" opacity="0.3" d="M240.474 246.343C234.6 244.364 236.259 239.612 229.103 234.393C219.664 227.507 210.878 231.473 207.269 225.853C206.145 224.103 205.458 221.299 206.825 216.572L201.951 217.081C200.828 217.198 199.963 218.127 199.925 219.256L198.577 259.532C198.531 260.922 199.737 262.024 201.117 261.854L266.05 253.811C267.104 253.68 267.925 252.835 268.025 251.778L268.536 246.36C266.475 245.41 264.037 244.59 261.237 244.24C251.529 243.028 247.236 248.621 240.474 246.343Z" fill="#3891A5"/>
</g>
<path d="M210.654 183.98C214.309 183.454 218.276 171.675 215.526 169.797C214.211 168.899 212.811 171.257 206.863 172.707C202.102 173.867 200.278 173.019 198.752 174.823C197.244 176.604 197.604 179.541 197.71 181.603C197.756 182.498 198.262 182.988 198.604 183.779C199.078 184.876 199.813 186.613 200.993 189.499C201.383 188.923 201.91 188.226 202.599 187.514C202.864 187.24 203.916 186.176 206.782 184.766C208.614 183.865 210.235 184.04 210.654 183.98Z" fill="url(#paint14_linear_2_720)"/>
<path d="M198.841 186.639C198.841 186.639 199.694 191.065 204.176 192.412C208.19 193.619 212.041 185.046 210.234 182.248C209.631 181.315 208.055 180.433 206.553 180.307C205.666 180.232 205.27 180.464 203.823 180.314C202.488 180.176 202.195 179.913 201.712 180.085C201.109 180.3 200.418 181.123 200.227 183.978C199.762 182.942 198.973 182.317 198.226 182.38C198.106 182.39 197.769 182.473 197.514 182.694C196.592 183.493 197.031 185.117 198.841 186.639Z" fill="url(#paint15_linear_2_720)"/>
<path d="M201.731 179.494C201.868 179.705 201.027 180.194 200.612 181.176C199.805 183.082 200.899 186.138 202.825 187.081C203.964 187.638 204.555 187.047 206.587 187.57C207.844 187.893 208.794 188.423 209.376 188.798C209.198 191.151 207.83 193.053 206.044 193.506C204.121 193.994 202.408 192.624 201.691 192.051C201.212 191.668 199.675 190.443 199.359 188.497C199.03 186.469 200.341 185.81 199.67 184.271C199.332 183.495 198.699 182.978 198.406 181.61C198.327 181.239 198.298 180.926 198.286 180.718C199.697 180.024 201.534 179.187 201.731 179.494Z" fill="url(#paint16_linear_2_720)"/>
<path d="M207.66 189.055C207.66 189.055 206.649 189.181 205.218 188.553C205.148 188.523 205.062 188.514 205.039 188.548C204.954 188.674 205.66 189.646 206.615 189.725C207.293 189.781 207.987 189.379 207.96 189.2C207.948 189.125 207.806 189.081 207.66 189.055Z" fill="url(#paint17_linear_2_720)"/>
<path d="M37.5945 284.326C38.0466 285.291 38.5575 286.705 38.6923 288.464C38.7515 289.235 38.7277 289.934 38.6662 290.54C38.169 291.273 35.8442 293.79 32.7047 294.411C30.7625 294.795 27.614 293.149 31.1807 290.92C34.7475 288.692 35.2805 288.155 34.2322 282.459C33.9624 280.993 34.0684 280.457 34.2986 280.354C34.8363 280.113 36.3682 282.36 37.5945 284.326Z" fill="url(#paint18_linear_2_720)"/>
<path d="M54.0435 288.677C54.4956 289.642 55.0063 291.056 55.1412 292.815C55.2004 293.586 55.1767 294.285 55.1152 294.891C54.618 295.624 52.2931 298.141 49.1537 298.762C47.2114 299.146 44.0629 297.5 47.6297 295.271C51.1965 293.043 51.7295 292.506 50.6811 286.81C50.4114 285.344 50.5174 284.808 50.7476 284.705C51.2853 284.464 52.8172 286.712 54.0435 288.677Z" fill="url(#paint19_linear_2_720)"/>
<path d="M71.15 169.666C72.3293 176.847 73.5085 184.028 74.6878 191.21C72.1051 198.003 69.7032 205.405 67.6682 213.399C60.3173 242.276 55.7336 270.088 55.3982 290.01C53.7801 290.596 52.162 291.181 50.5439 291.767C47.6445 280.819 48.5205 264.264 45.9429 244.744C42.8975 221.681 44.9682 203.651 43.9081 203.588C42.892 203.528 40.0462 220.033 40.041 238.883C40.0356 258.808 37.7437 274.85 39.2209 286.367C37.2821 286.483 35.3434 286.599 33.4046 286.714C28.0357 271.484 25.6898 253.339 22.9717 229.345C21.0841 212.683 18.8564 190.547 29.988 167.71C31.0995 165.43 34.9802 160.368 35.7078 159.117C48.473 161.559 58.3848 167.223 71.15 169.666Z" fill="#46A5BA"/>
<g style="mix-blend-mode:multiply" opacity="0.25">
<path style="mix-blend-mode:multiply" opacity="0.25" d="M67.6681 213.399C69.7031 205.405 72.1051 198.003 74.6878 191.209C73.5085 184.028 72.3292 176.847 71.1499 169.666C58.3848 167.223 48.473 161.559 35.7077 159.117C34.9802 160.368 31.0996 165.43 29.988 167.71C26.2356 175.409 24.0055 183.026 22.7644 190.382C47.461 190.113 54.6081 195.255 56.5757 199.996C59.708 207.542 50.1818 215.194 53.5521 230.467C54.5658 235.06 56.0796 237.323 56.2573 243.077C56.4905 250.627 54.0263 251.359 53.6404 259.04C53.2182 267.443 50.3076 275.657 51.6723 281.614C52.5207 285.317 53.5143 288.328 54.2778 290.416C54.6513 290.28 55.0247 290.145 55.3981 290.01C55.7335 270.088 60.3172 242.276 67.6681 213.399Z" fill="url(#paint20_linear_2_720)"/>
</g>
<path d="M58.3224 69.4642C59.2206 70.4338 58.199 71.9688 58.5057 77.1335C58.6459 79.4959 58.995 81.4526 59.3006 82.8362C59.4784 84.0984 59.6735 85.2656 59.8814 86.2929C60.0339 87.0468 60.1742 87.6337 60.3501 88.2554C60.6761 89.4089 61.089 90.5433 61.5768 91.6273C61.6091 91.6989 61.5807 91.7823 61.5135 91.8202C61.5095 91.8224 61.5054 91.8245 61.5012 91.8263C61.4253 91.8607 61.3361 91.8267 61.3019 91.7507C60.808 90.6535 60.3902 89.5052 60.0598 88.3377C59.8817 87.7082 59.74 87.1144 59.5858 86.3527C59.4763 85.8112 59.3706 85.2288 59.2686 84.6176C59.2707 86.2556 59.4244 88.049 60.2516 90.3784C62.7622 97.4483 57.634 102.815 53.2166 103.473C48.1224 104.232 46.6211 99.711 45.4088 98.4968C40.5227 93.6025 38.9033 84.6287 42.3 77.8263C46.7496 68.9148 56.1213 67.0877 58.3224 69.4642Z" fill="url(#paint21_linear_2_720)"/>
<path d="M46.1158 77.8076C46.2496 76.9738 47.1057 73.7442 49.7005 71.1732C54.5063 66.4923 63.7951 68.9062 69.5582 72.9823C75.5885 77.2474 74.7846 80.4958 80.7773 85.3056C87.2862 90.5298 90.7819 87.8073 99.5681 92.591C103.024 94.4726 111.284 99.279 112.846 108.553C114.195 116.566 109.445 124.519 103.204 128.538C92.2313 135.689 76.3856 127.994 68.404 119.974C60.7489 112.282 65.102 109.745 53.768 94.5262C49.6701 89.0238 45.1165 84.0382 46.1158 77.8076Z" fill="url(#paint22_linear_2_720)"/>
<path d="M5.08977 139.345C3.38733 134.344 4.57968 128.595 7.20705 124.576C11.647 117.786 17.4339 120.146 23.23 112.616C26.9793 107.745 30.3915 103.585 34.5545 100.47C37.617 98.1781 44.8639 95.5821 47.695 97.3841C56.1657 102.776 40.6239 148.687 23.4887 151.301C16.6326 152.346 7.64889 146.862 5.08977 139.345Z" fill="#3C96AA"/>
<path d="M38.8974 100.685C34.5082 105.129 33.3265 110.471 32.9806 112.858C31.9048 120.285 34.8219 126.343 35.507 127.934C38.7436 135.453 37.5513 150.273 18.6843 182.185C20.4777 183.68 26.6612 194.745 29.5858 189.439C33.5731 182.205 51.6622 131.301 34.2158 191.624C33.9859 192.419 35.7638 192.259 36.572 192.561C42.3668 194.725 49.3261 196.3 57.2334 196.201C69.6266 196.047 79.07 191.847 84.0624 189.147C80.6772 181.254 77.1331 170.572 75.6168 157.608C72.7243 132.876 78.7432 112.93 82.9379 102.174C79.1128 99.5303 66.9981 91.8728 52.6643 94.3475C49.0928 94.9641 43.5205 96.0054 38.8974 100.685Z" fill="#3C96AA"/>
<g style="mix-blend-mode:multiply" opacity="0.3">
<g style="mix-blend-mode:multiply" opacity="0.3">
<path d="M75.617 157.608C72.7245 132.876 78.7431 112.93 82.9379 102.174C79.1128 99.5303 66.9981 91.8727 52.6643 94.3474C49.0929 94.9641 43.5206 96.0055 38.8975 100.685C35.4029 104.223 33.9444 108.326 33.3193 111.058C33.4264 111.04 33.5739 111.016 33.7497 110.992C42.5773 109.773 52.7726 116.875 56.2581 123.593C62.0747 134.804 48.6942 143.965 49.0289 161.733C49.2099 171.338 53.3844 182.695 66.1464 195.377C74.1683 193.992 80.3487 191.155 84.0624 189.147C80.6773 181.254 77.1332 170.572 75.617 157.608Z" fill="#3C96AA"/>
</g>
</g>
<path d="M54.0337 87.9704C53.7038 90.9054 53.6963 91.1981 55.0809 93.3397C55.9245 94.6445 57.321 95.3715 58.6999 96.0564C61.9586 97.6753 63.4709 97.0178 64.1141 97.9999C65.5299 100.162 61.5211 108.411 54.9822 109.127C48.4746 109.84 42.5854 102.75 43.5649 99.7551C44.4487 97.0528 50.8549 97.9001 52.0002 94.4852C52.5768 92.766 51.5212 90.8568 50.5949 89.5639L49.8286 89.631L54.0337 87.9704Z" fill="#3C96AA"/>
<g style="mix-blend-mode:multiply" opacity="0.4">
<g style="mix-blend-mode:multiply" opacity="0.4">
<path d="M64.1139 97.9999C63.4707 97.0179 61.9584 97.6751 58.6997 96.0563C57.3207 95.3715 55.9245 94.6444 55.0809 93.3396C53.6962 91.198 53.3286 91.0124 54.0335 87.9704L49.8284 89.6309L50.5947 89.5639C51.3299 90.5901 52.1328 92.0041 52.1501 93.4037C52.5998 93.7147 52.9796 94.0561 53.2488 94.3874C52.3953 96.2284 52.1058 97.8177 51.9948 98.8455C51.8217 100.448 51.6932 101.639 52.3808 102.763C53.1309 103.99 54.4127 104.42 55.5335 104.796C58.0236 105.632 60.3506 105.354 61.8793 104.988C63.9928 102.347 64.9089 99.2137 64.1139 97.9999Z" fill="#3C96AA"/>
</g>
</g>
<path d="M54.5308 87.8659C54.5308 87.8659 55.0886 91.1028 51.9738 91.9819C48.1359 93.065 44.9045 83.0412 45.6788 82.2033C46.5767 81.2315 47.9799 82.6152 50.3438 81.3436C51.3392 80.8081 51.8795 79.1881 52.8251 80.5114C53.9008 82.017 54.2035 85.125 54.2035 85.125C54.2035 85.125 54.9084 84.1195 55.2992 84.9868C55.8105 86.1218 55.1259 87.1088 54.5308 87.8659Z" fill="url(#paint23_linear_2_720)"/>
<path d="M47.4512 76.6074C46.1875 77.8998 45.4932 80.4047 46.3722 81.6621C47.635 83.4684 51.3591 81.575 52.8865 83.7846C53.5562 84.7534 53.5193 86.0994 53.8657 86.077C54.1527 86.0583 54.3209 85.1257 54.4851 84.3581C55.3901 80.1267 56.4437 79.6504 56.1206 78.4397C55.464 75.979 50.0457 73.9537 47.4512 76.6074Z" fill="url(#paint24_linear_2_720)"/>
<path d="M46.8985 130.726L45.9838 129.338C45.9838 129.338 44.8603 126.637 43.8645 125.219C42.8688 123.802 41.6846 123.279 40.0836 124.024C38.4826 124.769 39.1954 126.815 39.7927 128.593C40.1562 129.675 41.6762 130.673 42.9744 131.368C43.887 131.856 45.2852 133.54 45.2852 133.54L46.8985 130.726Z" fill="url(#paint25_linear_2_720)"/>
<path d="M16.8423 118.549L26.8618 143.336C27.0317 143.795 27.4039 144.15 27.8705 144.299L39.4208 147.967C40.614 148.346 41.7559 147.26 41.4371 146.049L35.2623 122.615C35.121 122.079 34.7168 120.889 33.694 120.564L19.6251 116.497C18.3713 116.126 16.3887 117.322 16.8423 118.549Z" fill="url(#paint26_linear_2_720)"/>
<path d="M16.7151 118.941L25.5865 142.931C25.7564 143.39 26.1285 143.745 26.5951 143.894L38.1454 147.562C39.3386 147.941 40.4805 146.855 40.1616 145.644L33.9871 122.21C33.8457 121.673 33.4348 121.25 32.9029 121.092L18.6557 116.868C17.402 116.496 16.2615 117.715 16.7151 118.941Z" fill="url(#paint27_linear_2_720)"/>
<path d="M96.162 147.354C97.1847 143.123 94.5834 138.864 90.3518 137.841C87.266 137.095 84.167 138.278 82.3175 140.613C81.4099 140.986 79.4961 140.263 76.2788 139.671C66.6386 137.896 63.526 140.657 58.0361 139.015C54.8109 138.05 50.652 135.532 46.7755 128.609C46.0292 131.024 45.2827 133.44 44.5363 135.855C44.7809 138.504 46.0155 148.474 54.2333 155.351C64.3282 163.8 78.905 162.517 88.0889 156.863C90.8746 155.148 93.1334 152.875 94.9109 150.218C94.9089 150.179 94.9049 150.14 94.9024 150.101C95.4794 149.299 95.9154 148.374 96.162 147.354Z" fill="#46A5BA"/>
<path d="M18.0628 130.057L19.2066 128.851C19.2066 128.851 21.5825 127.144 22.7366 125.852C23.8909 124.561 24.1318 123.289 23.0424 121.899C21.9529 120.509 20.123 121.667 18.5266 122.653C17.5554 123.252 16.929 124.959 16.5468 126.381C16.2781 127.381 14.9556 129.125 14.9556 129.125L18.0628 130.057Z" fill="url(#paint28_linear_2_720)"/>
<path d="M14.765 127.62C16.246 128.359 17.7274 129.097 19.2084 129.836C19.6617 130.412 25.058 137.496 22.1772 144.289C21.8024 145.173 20.3856 148.514 17.5914 149.106C13.2795 150.019 6.99798 144.108 7.20058 137.763C7.33643 133.511 10.3678 129.604 14.765 127.62Z" fill="#46A5BA"/>
<path d="M81.6745 104.31C76.8767 100.795 76.4414 102.095 72.1065 101.82C65.6874 117.086 67.4181 125.233 70.2749 129.869C73.9965 135.907 81.6876 139.328 81.6648 141.494C80.9733 142.666 80.5751 144.032 80.5751 145.492C80.5751 149.845 84.1042 153.374 88.4575 153.374C91.582 153.374 94.2817 151.556 95.557 148.92C95.663 148.829 95.7443 148.713 95.7968 148.57C101.235 133.789 93.1276 112.7 81.6745 104.31Z" fill="#46A5BA"/>
<path d="M54.0817 80.4883C53.2007 81.4539 55.1409 84.6443 59.0574 90.9859C61.468 94.889 62.6732 96.8405 63.4474 97.6839C67.6157 102.225 74.6418 105.717 81.742 105.312C86.6144 105.034 87.3253 103.16 91.3204 103.821C97.3473 104.817 100.795 109.919 101.068 109.65C101.37 109.352 97.4673 102.821 89.6458 97.3818C83.246 92.9309 81.5094 94.2788 71.4525 88.1165C70.7228 87.6694 67.6342 85.7643 63.2993 83.6217C58.203 81.1029 54.9581 79.5275 54.0817 80.4883Z" fill="url(#paint29_linear_2_720)"/>
<defs>
<linearGradient id="paint0_linear_2_720" x1="435.324" y1="111.512" x2="470.718" y2="217.283" gradientUnits="userSpaceOnUse">
<stop stop-color="#FF9085"/>
<stop offset="0.5" stop-color="#FD80A0"/>
<stop offset="1" stop-color="#FB6FBB"/>
</linearGradient>
<linearGradient id="paint1_linear_2_720" x1="-164.548" y1="29.9385" x2="-116.233" y2="-127.693" gradientUnits="userSpaceOnUse">
<stop stop-color="#F8BE97"/>
<stop offset="0.5" stop-color="#F79585"/>
<stop offset="1" stop-color="#F36F56"/>
</linearGradient>
<linearGradient id="paint2_linear_2_720" x1="299.521" y1="117.676" x2="235.012" y2="26.6868" gradientUnits="userSpaceOnUse">
<stop stop-color="#FFA491"/>
<stop offset="0.5" stop-color="#F79585"/>
<stop offset="1" stop-color="#ED706C"/>
</linearGradient>
<linearGradient id="paint3_linear_2_720" x1="80.4884" y1="151.599" x2="222.013" y2="151.599" gradientUnits="userSpaceOnUse">
<stop stop-color="#ECF2F0"/>
<stop offset="0.5" stop-color="#F3F6F5"/>
<stop offset="1" stop-color="white"/>
</linearGradient>
<linearGradient id="paint4_linear_2_720" x1="77.06" y1="41.0322" x2="201.089" y2="294.644" gradientUnits="userSpaceOnUse">
<stop stop-color="#32308B"/>
<stop offset="0.5" stop-color="#4666BA"/>
<stop offset="1" stop-color="#30498B"/>
</linearGradient>
<linearGradient id="paint5_linear_2_720" x1="593.562" y1="475.659" x2="580.636" y2="480.482" gradientUnits="userSpaceOnUse">
<stop stop-color="#444B8C"/>
<stop offset="0.5" stop-color="#35396D"/>
<stop offset="1" stop-color="#26264F"/>
</linearGradient>
<linearGradient id="paint6_linear_2_720" x1="476.631" y1="508.898" x2="478.009" y2="522.2" gradientUnits="userSpaceOnUse">
<stop stop-color="#F8BE97"/>
<stop offset="0.5" stop-color="#F8B0A4"/>
<stop offset="1" stop-color="#F36F56"/>
<stop offset="1" stop-color="#ED706C"/>
</linearGradient>
<linearGradient id="paint7_linear_2_720" x1="531.737" y1="470.645" x2="518.916" y2="475.741" gradientUnits="userSpaceOnUse">
<stop stop-color="#444B8C"/>
<stop offset="0.5" stop-color="#35396D"/>
<stop offset="1" stop-color="#26264F"/>
</linearGradient>
<linearGradient id="paint8_linear_2_720" x1="430.661" y1="490.343" x2="432.039" y2="503.645" gradientUnits="userSpaceOnUse">
<stop stop-color="#FFBF9C"/>
<stop offset="0.5" stop-color="#FF9085"/>
<stop offset="1" stop-color="#F36F56"/>
<stop offset="1" stop-color="#ED706C"/>
</linearGradient>
<linearGradient id="paint9_linear_2_720" x1="174.775" y1="264.103" x2="208.072" y2="221.942" gradientUnits="userSpaceOnUse">
<stop stop-color="#AA80F9"/>
<stop offset="0.5" stop-color="#8672E8"/>
<stop offset="1" stop-color="#6165D7"/>
</linearGradient>
<linearGradient id="paint10_linear_2_720" x1="187.147" y1="304.475" x2="175.632" y2="284.932" gradientUnits="userSpaceOnUse">
<stop stop-color="#311944"/>
<stop offset="0.5" stop-color="#5D295D"/>
<stop offset="1" stop-color="#893976"/>
</linearGradient>
<linearGradient id="paint11_linear_2_720" x1="147.024" y1="276.459" x2="153.412" y2="294.698" gradientUnits="userSpaceOnUse">
<stop stop-color="#311944"/>
<stop offset="0.5" stop-color="#5D295D"/>
<stop offset="1" stop-color="#893976"/>
</linearGradient>
<linearGradient id="paint12_linear_2_720" x1="195.635" y1="209.096" x2="222.064" y2="161.575" gradientUnits="userSpaceOnUse">
<stop stop-color="#F8BE97"/>
<stop offset="0.5" stop-color="#F79585"/>
<stop offset="1" stop-color="#ED706C"/>
</linearGradient>
<linearGradient id="paint13_linear_2_720" x1="185.153" y1="246.271" x2="215.839" y2="246.278" gradientUnits="userSpaceOnUse">
<stop stop-color="#F8BE97"/>
</linearGradient>
<linearGradient id="paint14_linear_2_720" x1="212.964" y1="157.64" x2="200.448" y2="200.971" gradientUnits="userSpaceOnUse">
<stop stop-color="#444B8C"/>
<stop offset="0.5" stop-color="#35396D"/>
<stop offset="1" stop-color="#26264F"/>
</linearGradient>
<linearGradient id="paint15_linear_2_720" x1="208.912" y1="177.577" x2="196.484" y2="215.213" gradientUnits="userSpaceOnUse">
<stop stop-color="#F8BE97"/>
<stop offset="0.5" stop-color="#FFA491"/>
<stop offset="1" stop-color="#ED706C"/>
</linearGradient>
<linearGradient id="paint16_linear_2_720" x1="196.881" y1="158.75" x2="205.783" y2="191.914" gradientUnits="userSpaceOnUse">
<stop stop-color="#444B8C"/>
<stop offset="0.5" stop-color="#35396D"/>
<stop offset="1" stop-color="#26264F"/>
</linearGradient>
<linearGradient id="paint17_linear_2_720" x1="477.754" y1="121.452" x2="478.933" y2="116.66" gradientUnits="userSpaceOnUse">
<stop stop-color="#F8B0A4"/>
<stop offset="0.5" stop-color="#F79585"/>
<stop offset="1" stop-color="#ED706C"/>
</linearGradient>
<linearGradient id="paint18_linear_2_720" x1="32.3392" y1="273.08" x2="42.481" y2="275.215" gradientUnits="userSpaceOnUse">
<stop stop-color="#FF760E"/>
<stop offset="1" stop-color="#FE4D1E"/>
</linearGradient>
<linearGradient id="paint19_linear_2_720" x1="48.7881" y1="277.431" x2="58.9299" y2="279.567" gradientUnits="userSpaceOnUse">
<stop stop-color="#FF760E"/>
<stop offset="1" stop-color="#FE4D1E"/>
</linearGradient>
<linearGradient id="paint20_linear_2_720" x1="39.8194" y1="218.682" x2="91.2756" y2="224.001" gradientUnits="userSpaceOnUse">
<stop stop-color="#F79585"/>
<stop offset="0.5" stop-color="#F79585"/>
<stop offset="1" stop-color="#ED706C"/>
</linearGradient>
<linearGradient id="paint21_linear_2_720" x1="144.755" y1="126.332" x2="44.1064" y2="73.5126" gradientUnits="userSpaceOnUse">
<stop stop-color="#311944"/>
<stop offset="0.5" stop-color="#4E295D"/>
<stop offset="1" stop-color="#6B3976"/>
</linearGradient>
<linearGradient id="paint22_linear_2_720" x1="145.209" y1="125.454" x2="44.5611" y2="72.635" gradientUnits="userSpaceOnUse">
<stop stop-color="#311944"/>
<stop offset="0.5" stop-color="#4E295D"/>
<stop offset="1" stop-color="#6B3976"/>
</linearGradient>
<linearGradient id="paint23_linear_2_720" x1="-81.8815" y1="79.5748" x2="-90.6091" y2="45.832" gradientUnits="userSpaceOnUse">
<stop stop-color="#F8BE97"/>
<stop offset="0.5" stop-color="#F79585"/>
<stop offset="1" stop-color="#ED706C"/>
</linearGradient>
<linearGradient id="paint24_linear_2_720" x1="146.414" y1="121.942" x2="45.7655" y2="69.1221" gradientUnits="userSpaceOnUse">
<stop stop-color="#311944"/>
<stop offset="0.5" stop-color="#4E295D"/>
<stop offset="1" stop-color="#6B3976"/>
</linearGradient>
<linearGradient id="paint25_linear_2_720" x1="42.2747" y1="122.333" x2="50.8091" y2="139.466" gradientUnits="userSpaceOnUse">
<stop stop-color="#F8BE97"/>
<stop offset="0.5" stop-color="#F8B0A4"/>
<stop offset="1" stop-color="#ED706C"/>
</linearGradient>
<linearGradient id="paint26_linear_2_720" x1="85.281" y1="119.799" x2="72.9397" y2="127.544" gradientUnits="userSpaceOnUse">
<stop stop-color="#F8BE97"/>
<stop offset="0.4999" stop-color="#F79585"/>
<stop offset="0.5" stop-color="#F99A4D"/>
<stop offset="1" stop-color="#ED706C"/>
</linearGradient>
<linearGradient id="paint27_linear_2_720" x1="49.8046" y1="127.534" x2="99.1053" y2="143.189" gradientUnits="userSpaceOnUse">
<stop stop-color="#FF9085"/>
<stop offset="0.5" stop-color="#FD80A0"/>
<stop offset="1" stop-color="#FB6FBB"/>
</linearGradient>
<linearGradient id="paint28_linear_2_720" x1="23.8713" y1="123.849" x2="5.59431" y2="137.017" gradientUnits="userSpaceOnUse">
<stop stop-color="#F8B0A4"/>
<stop offset="0.5" stop-color="#F79585"/>
<stop offset="1" stop-color="#ED706C"/>
</linearGradient>
<linearGradient id="paint29_linear_2_720" x1="145.877" y1="123.387" x2="45.229" y2="70.5679" gradientUnits="userSpaceOnUse">
<stop stop-color="#311944"/>
<stop offset="0.5" stop-color="#4E295D"/>
<stop offset="1" stop-color="#6B3976"/>
</linearGradient>
</defs>
</svg>
