<svg width="186" height="113" viewBox="0 0 186 113" fill="none" xmlns="http://www.w3.org/2000/svg">
<path d="M69.4282 124.739L-36.5561 117.32C-63.2326 115.452 -78.1422 107.174 -75.6696 95.6022C-70.3411 70.6654 8.18748 44.5215 65.6786 48.5443L171.663 55.9605C198.345 57.8277 213.257 66.1079 210.781 77.6817L210.78 77.685C205.445 102.622 126.915 128.763 69.4282 124.739Z" fill="#858585"/>
<path d="M210.616 72.281L-9.90542 56.8503C-12.4758 57.5323 -15.0117 58.2466 -17.5054 58.9918L211.032 74.9799C211.01 74.0549 210.873 73.1543 210.616 72.281Z" fill="white"/>
<path d="M118.311 122.086L-68.8646 108.991C-67.3697 109.974 -65.649 110.884 -63.7119 111.717L106.825 123.656C110.655 123.22 114.491 122.694 118.311 122.086Z" fill="white"/>
<path d="M187.663 100.209L-66.4636 82.4134C-66.5809 82.5143 -66.7034 82.6146 -66.8184 82.7156L187.135 100.499C187.313 100.403 187.486 100.306 187.663 100.209Z" fill="white"/>
<path d="M186.042 101.077L-67.4894 83.3228C-67.6006 83.4241 -67.7127 83.5252 -67.822 83.6265L185.496 101.365C185.68 101.269 185.859 101.173 186.042 101.077Z" fill="white"/>
<path d="M10.8096 101.811L10.752 102.08L18.0118 102.588L18.0691 102.319L10.8096 101.811Z" fill="white"/>
<path d="M39.6709 103.83L39.6133 104.099L46.8731 104.607L46.9308 104.338L39.6709 103.83Z" fill="white"/>
<path d="M25.2402 102.82L25.1823 103.089L32.4417 103.597L32.4994 103.329L25.2402 102.82Z" fill="white"/>
<path d="M-3.62276 100.801L-3.68039 101.07L3.57942 101.578L3.63705 101.309L-3.62276 100.801Z" fill="white"/>
<path d="M54.1015 104.839L54.044 105.108L61.3033 105.616L61.3608 105.347L54.1015 104.839Z" fill="white"/>
<path d="M96.9947 107.84L96.937 108.108L104.197 108.616L104.254 108.347L96.9947 107.84Z" fill="white"/>
<path d="M111.428 108.85L111.371 109.119L118.63 109.627L118.688 109.358L111.428 108.85Z" fill="white"/>
<path d="M68.1333 105.821L68.0759 106.089L75.3355 106.597L75.3928 106.328L68.1333 105.821Z" fill="white"/>
<path d="M147.549 111.377L140.289 110.869L140.232 111.138L147.492 111.646L147.549 111.377Z" fill="white"/>
<path d="M125.859 109.86L125.801 110.129L133.061 110.636L133.118 110.368L125.859 109.86Z" fill="white"/>
<path d="M82.5645 106.83L82.5065 107.099L89.7663 107.607L89.8234 107.338L82.5645 106.83Z" fill="white"/>
<path d="M154.664 112.148L158.589 112.422C158.818 112.347 159.049 112.273 159.277 112.198L154.721 111.879L154.664 112.148Z" fill="white"/>
<path d="M59.8804 77.8032L59.8224 78.072L67.0822 78.5799L67.1392 78.3111L59.8804 77.8032Z" fill="white"/>
<path d="M2.15629 73.7649L2.09883 74.0337L9.35864 74.5416L9.4161 74.2728L2.15629 73.7649Z" fill="white"/>
<path d="M45.4495 76.7937L45.3919 77.0624L52.6517 77.5702L52.7093 77.3015L45.4495 76.7937Z" fill="white"/>
<path d="M31.0191 75.7841L30.9616 76.0529L38.2214 76.5608L38.2789 76.292L31.0191 75.7841Z" fill="white"/>
<path d="M16.5886 74.7744L16.5308 75.0434L23.7903 75.5513L23.8476 75.2824L16.5886 74.7744Z" fill="white"/>
<path d="M160.501 84.8426L160.443 85.1114L167.703 85.6192L167.76 85.3504L160.501 84.8426Z" fill="white"/>
<path d="M174.931 85.8521L174.873 86.121L182.133 86.6287L182.191 86.3601L174.931 85.8521Z" fill="white"/>
<path d="M73.9126 78.7841L73.855 79.0528L81.1145 79.5607L81.1725 79.2919L73.9126 78.7841Z" fill="white"/>
<path d="M102.774 80.8032L102.716 81.072L109.976 81.5798L110.033 81.3111L102.774 80.8032Z" fill="white"/>
<path d="M146.069 83.833L146.011 84.1017L153.271 84.6095L153.328 84.3406L146.069 83.833Z" fill="white"/>
<path d="M88.3433 79.7937L88.2857 80.0624L95.5455 80.5702L95.6028 80.3013L88.3433 79.7937Z" fill="white"/>
<path d="M117.208 81.8138L117.15 82.0825L124.41 82.5903L124.467 82.3214L117.208 81.8138Z" fill="white"/>
<path d="M131.638 82.8233L131.581 83.0922L138.84 83.5999L138.898 83.3312L131.638 82.8233Z" fill="white"/>
</svg>
